<svg width="750" height="500" viewBox="0 0 750 500" fill="none" xmlns="http://www.w3.org/2000/svg"><path fill="#939393" d="m65.457 128.177 39.995.64-1.968 122.984-39.995-.64z"/><path fill="#939393" d="m103.483 251.801.64-39.995 122.984 1.968-.64 39.995z"/><path fill="#939393" d="m186.473 253.129 39.995.64-1.968 122.984-39.995-.64z"/><path fill="#939393" d="m185.145 336.119-.64 39.995-122.984-1.968.64-39.995zm31.293-205.526-.64 39.995-110.986-1.776.64-39.995z"/><path d="M467 443.86a16.654 16.654 0 0 1 15.818-.258 16.663 16.663 0 0 1 8.902 13.078c-10.1 0-20-2.35-24.72-12.82Zm11.76-10.35a21.54 21.54 0 0 0 20.153-3.623 21.556 21.556 0 0 0 8.027-18.837c-12.83 2.52-24.87 8-28.18 22.46Z" fill="#EBEBEB"/><path d="M434.79 450.6c.202-.101.413-.185.63-.25l1.85-.62c1.6-.52 3.92-1.28 6.77-2.27 5.71-2 13.54-4.84 22-8.51 4.21-1.85 8.17-3.73 11.73-5.53a134.9 134.9 0 0 0 9.25-5.15 62.372 62.372 0 0 0 5.87-4c1.32-1 2-1.71 2-1.67a3.011 3.011 0 0 1-.45.5c-.452.469-.929.913-1.43 1.33a53.272 53.272 0 0 1-5.81 4.19c-2.55 1.62-5.68 3.4-9.22 5.26-3.54 1.86-7.52 3.73-11.75 5.59-8.45 3.68-16.32 6.5-22.06 8.38-2.87.95-5.21 1.65-6.83 2.11l-1.87.53c-.221.065-.45.102-.68.11Z" fill="#E0E0E0"/><path d="M480 449.74c0 .08-1.22-.74-3.23-1.83a40.336 40.336 0 0 0-8.27-3.32 39.523 39.523 0 0 0-8.82-1.35c-2.28-.09-3.71 0-3.71-.08a4.03 4.03 0 0 1 1-.16c.906-.096 1.818-.14 2.73-.13a34.48 34.48 0 0 1 17.26 4.72c.789.458 1.55.962 2.28 1.51.283.175.539.391.76.64Z" fill="#E0E0E0"/><path d="M241.73 404.78a21.01 21.01 0 0 0 2.702 19.759 20.991 20.991 0 0 0 7.915 6.568 20.99 20.99 0 0 0 10.083 2.023c-1.92-12.58-6.76-24.54-20.7-28.35" fill="#EBEBEB"/><path d="M239.76 398.6c.08 0 .42 1.38 1.15 3.57a53.54 53.54 0 0 0 3.55 8.28 54.612 54.612 0 0 0 4.93 7.54c1.43 1.82 2.4 2.88 2.34 2.94a3.944 3.944 0 0 1-.76-.67 40.37 40.37 0 0 1-1.86-2 43.589 43.589 0 0 1-8.55-15.94c-.32-1.12-.55-2-.66-2.68a3.242 3.242 0 0 1-.14-1.04Z" fill="#E0E0E0"/><path d="M41.89 152.44A32.53 32.53 0 0 0 74 196.37c-3-19.5-10.47-38-32.07-43.93" fill="#EBEBEB"/><path d="M38.83 142.88c.203.481.36.98.47 1.49.26 1 .67 2.36 1.22 4.07A80.63 80.63 0 0 0 46 161.3a79.846 79.846 0 0 0 7.68 11.7c1.12 1.4 2 2.52 2.71 3.27.362.379.696.783 1 1.21a8.488 8.488 0 0 1-1.14-1.07c-.71-.72-1.69-1.8-2.84-3.18a69.45 69.45 0 0 1-13.23-24.67c-.51-1.72-.87-3.14-1.07-4.12a11.203 11.203 0 0 1-.28-1.56Z" fill="#E0E0E0"/><path d="M261.26 98.62a21.003 21.003 0 0 0 27.283-7.855 21.011 21.011 0 0 0 3.047-9.825c-12.72.61-25.1 4.2-30.33 17.68Z" fill="#EBEBEB"/><path d="M254.91 100c0-.08 1.42-.28 3.67-.78a51.859 51.859 0 0 0 16.61-6.81c2-1.24 3.11-2.09 3.16-2a3.457 3.457 0 0 1-.74.69c-.5.42-1.26 1-2.22 1.64a43.767 43.767 0 0 1-16.73 6.87c-1.15.21-2.08.33-2.73.39a3.787 3.787 0 0 1-1.02 0Z" fill="#E0E0E0"/><path d="M235.34 96.81a27.688 27.688 0 0 0 16.72-43.17c-12.6 11.09-22.42 25-16.72 43.17Z" fill="#EBEBEB"/><path d="M229.89 103.39c.248-.359.529-.694.84-1 .57-.63 1.38-1.57 2.34-2.75a67.011 67.011 0 0 0 11.53-20.7c.5-1.44.87-2.62 1.11-3.44.1-.433.244-.856.43-1.26a6.011 6.011 0 0 1-.24 1.31c-.17.84-.5 2-1 3.5a58.69 58.69 0 0 1-11.59 20.82c-1 1.16-1.86 2.07-2.48 2.66a6.129 6.129 0 0 1-.94.86Z" fill="#E0E0E0"/><path d="M317.37 439.37a12.645 12.645 0 0 0 9.861 6.844 12.649 12.649 0 0 0 11.139-4.474c-6.36-4.28-13.64-7-21-2.37Z" fill="#EBEBEB"/><path d="M313.83 437.73a58.358 58.358 0 0 0 7.2 2.64 56.2 56.2 0 0 0 7.58 1.14 7.368 7.368 0 0 1-2.27.14 25.39 25.39 0 0 1-10.58-2.71 7.608 7.608 0 0 1-1.93-1.21Z" fill="#E0E0E0"/><path d="M410.07 80.33a12.646 12.646 0 0 0 11.005 4.82 12.638 12.638 0 0 0 10.065-6.56c-7.07-3-14.73-4.23-21.07 1.74Z" fill="#EBEBEB"/><path d="M406.28 79.41a38.34 38.34 0 0 0 15.23.85 7.835 7.835 0 0 1-2.2.57 25.341 25.341 0 0 1-10.91-.61 7.537 7.537 0 0 1-2.12-.81Z" fill="#E0E0E0"/><path d="M650.311 111.09a21.005 21.005 0 0 0 19.426-4.466 21 21 0 0 0 6.944-18.684c-12.36 3-23.82 8.93-26.37 23.15Z" fill="#EBEBEB"/><path d="M644.33 113.61c0-.08 1.33-.55 3.45-1.47a51.84 51.84 0 0 0 15-9.86c1.69-1.59 2.65-2.65 2.72-2.59a3.863 3.863 0 0 1-.6.81c-.41.51-1 1.21-1.86 2a43.83 43.83 0 0 1-15.11 9.94c-1.08.42-2 .73-2.6.9a4.135 4.135 0 0 1-1 .27Z" fill="#E0E0E0"/><path d="M674 415.88a36.547 36.547 0 0 0 21.18-57.29C678.75 373.48 666.09 392 674 415.88Z" fill="#EBEBEB"/><path d="M666.91 424.68c.34-.48.715-.934 1.12-1.36.75-.84 1.8-2.09 3.05-3.66a92.62 92.62 0 0 0 4.18-5.7c1.49-2.2 3-4.71 4.47-7.41 1.47-2.7 2.67-5.36 3.7-7.82 1.03-2.46 1.84-4.71 2.45-6.63.61-1.92 1.07-3.48 1.36-4.57.125-.574.299-1.136.52-1.68a11.945 11.945 0 0 1-.32 1.73c-.23 1.11-.64 2.69-1.21 4.63s-1.36 4.22-2.35 6.71-2.24 5.15-3.69 7.88a86.328 86.328 0 0 1-4.53 7.43c-1.53 2.2-3 4.11-4.29 5.66-1.29 1.55-2.4 2.77-3.19 3.57-.39.44-.815.848-1.27 1.22Z" fill="#E0E0E0"/><path d="M124.837 329.32a20.999 20.999 0 0 0 3.39 34.95c4.75-11.81 6.67-24.56-3.39-34.95Z" fill="#EBEBEB"/><path d="M126.278 323c.08 0-.33 1.41-.82 3.66a51.67 51.67 0 0 0-.75 17.94c.3 2.29.6 3.7.51 3.72a4.278 4.278 0 0 1-.31-1c-.17-.63-.37-1.55-.57-2.69a43.99 43.99 0 0 1 .76-18.08c.29-1.13.57-2 .79-2.64.094-.317.225-.623.39-.91Z" fill="#E0E0E0"/><path d="M538.22 289.8c-6.31-35.25-36.58-66-72.27-68.94-19.45-1.58-39 4.55-58.37 2.21a67.998 67.998 0 0 1-42.49-22.4c-16-18.2-21.41-44.09-38.35-61.41-23.34-23.89-64.07-24.26-92.47-6.69-28.4 17.57-45.57 49.28-53.43 81.73l-.31 9.87c-1.71 33.66 7.15 72.83 26.68 102.83 19.79 30.4 32.8 43 68.86 64.81 30.62 18.56 90.58 26.72 126.38 27.58 35.8.86 72.57-9.8 99.5-33.42 26.93-23.62 42.59-60.92 36.27-96.17Z" fill="#D87E2E"/><path d="M538.22 289.8c-6.31-35.25-36.58-66-72.27-68.94-19.45-1.58-39 4.55-58.37 2.21a67.998 67.998 0 0 1-42.49-22.4c-16-18.2-21.41-44.09-38.35-61.41-23.34-23.89-64.07-24.26-92.47-6.69-28.4 17.57-45.57 49.28-53.43 81.73l-.31 9.87c-1.71 33.66 7.15 72.83 26.68 102.83 19.79 30.4 32.8 43 68.86 64.81 30.62 18.56 90.58 26.72 126.38 27.58 35.8.86 72.57-9.8 99.5-33.42 26.93-23.62 42.59-60.92 36.27-96.17Z" fill="#fff" opacity=".8"/><path d="M573.315 415.655c1.368-9.428-5.165-18.181-14.593-19.549-9.428-1.369-18.181 5.165-19.549 14.593-1.369 9.428 5.164 18.18 14.592 19.549 9.428 1.369 18.181-5.165 19.55-14.593Z" fill="#D87E2E"/><path opacity=".8" d="M573.315 415.655c1.368-9.428-5.165-18.181-14.593-19.549-9.428-1.369-18.181 5.165-19.549 14.593-1.369 9.428 5.164 18.18 14.592 19.549 9.428 1.369 18.181-5.165 19.55-14.593Z" fill="#fff"/><path d="M435.161 280.45c.326 34.44-7.18 60.773-22.52 79-15.34 18.227-36.34 27.46-63 27.7-26.8.26-48.104-8.567-63.91-26.48-15.807-17.913-23.88-44.087-24.22-78.52l-.58-60.56c-.334-34.307 7.173-60.64 22.52-79 15.346-18.36 36.416-27.653 63.21-27.88 26.666-.26 47.91 8.63 63.73 26.67s23.89 44.21 24.21 78.51l.56 60.56Zm-44.83-66.92c-.22-21.687-3.997-37.7-11.33-48.04-7.334-10.34-18-15.447-32-15.32-13.954.133-24.484 5.443-31.59 15.93-7.107 10.487-10.577 26.57-10.41 48.25l.7 73.59c.206 21.8 4.03 37.903 11.47 48.31 7.44 10.407 18.13 15.543 32.07 15.41 13.94-.133 24.436-5.443 31.49-15.93 7.053-10.487 10.476-26.69 10.27-48.61l-.67-73.59Z" fill="#D87E2E"/><path d="M435.161 280.45c.326 34.44-7.18 60.773-22.52 79-15.34 18.227-36.34 27.46-63 27.7-26.8.26-48.104-8.567-63.91-26.48-15.807-17.913-23.88-44.087-24.22-78.52l-.58-60.56c-.334-34.307 7.173-60.64 22.52-79 15.346-18.36 36.416-27.653 63.21-27.88 26.666-.26 47.91 8.63 63.73 26.67s23.89 44.21 24.21 78.51l.56 60.56Zm-44.83-66.92c-.22-21.687-3.997-37.7-11.33-48.04-7.334-10.34-18-15.447-32-15.32-13.954.133-24.484 5.443-31.59 15.93-7.107 10.487-10.577 26.57-10.41 48.25l.7 73.59c.206 21.8 4.03 37.903 11.47 48.31 7.44 10.407 18.13 15.543 32.07 15.41 13.94-.133 24.436-5.443 31.49-15.93 7.053-10.487 10.476-26.69 10.27-48.61l-.67-73.59Zm247.91 66.495c.326 34.44-7.18 60.773-22.52 79-15.34 18.227-36.34 27.46-63 27.7-26.8.26-48.104-8.567-63.91-26.48-15.807-17.913-23.88-44.087-24.22-78.52l-.58-60.56c-.334-34.307 7.173-60.64 22.52-79 15.346-18.36 36.416-27.653 63.21-27.88 26.666-.26 47.91 8.63 63.73 26.67s23.89 44.21 24.21 78.51l.56 60.56Zm-44.83-66.92c-.22-21.687-3.997-37.7-11.33-48.04-7.334-10.34-18-15.447-32-15.32-13.954.133-24.484 5.443-31.59 15.93-7.107 10.487-10.577 26.57-10.41 48.25l.7 73.59c.206 21.8 4.03 37.903 11.47 48.31 7.44 10.407 18.13 15.543 32.07 15.41 13.94-.133 24.436-5.443 31.49-15.93 7.053-10.487 10.476-26.69 10.27-48.61l-.67-73.59Z" fill="#000" opacity=".4"/><path d="M460.62 280.21c.333 34.433-7.174 60.767-22.52 79-15.347 18.233-36.347 27.467-63 27.7-26.8.26-48.104-8.57-63.91-26.49-15.807-17.92-23.87-44.1-24.19-78.54l-.58-60.56c-.334-34.307 7.173-60.64 22.52-79 15.346-18.36 36.416-27.657 63.21-27.89 26.666-.247 47.91 8.643 63.73 26.67s23.86 44.21 24.12 78.55l.62 60.56Zm-44.83-66.92c-.214-21.68-4.007-37.68-11.38-48-7.374-10.32-18.04-15.427-32-15.32-13.954.14-24.484 5.45-31.59 15.93-7.107 10.48-10.56 26.567-10.36 48.26l.71 73.58c.213 21.807 4.036 37.913 11.47 48.32 7.433 10.407 18.123 15.543 32.07 15.41 13.94-.14 24.436-5.45 31.49-15.93 7.053-10.48 10.473-26.687 10.26-48.62l-.67-73.63Zm247.91 66.495c.333 34.433-7.173 60.767-22.52 79-15.347 18.233-36.347 27.467-63 27.7-26.8.26-48.103-8.57-63.91-26.49-15.807-17.92-23.87-44.1-24.19-78.54l-.58-60.56c-.333-34.307 7.173-60.64 22.52-79s36.417-27.657 63.21-27.89c26.667-.247 47.91 8.643 63.73 26.67s23.86 44.21 24.12 78.55l.62 60.56Zm-44.83-66.92c-.213-21.68-4.007-37.68-11.38-48-7.373-10.32-18.04-15.427-32-15.32-13.953.14-24.483 5.45-31.59 15.93-7.107 10.48-10.56 26.567-10.36 48.26l.71 73.58c.213 21.807 4.037 37.913 11.47 48.32 7.433 10.407 18.123 15.543 32.07 15.41 13.94-.14 24.437-5.45 31.49-15.93 7.053-10.48 10.473-26.687 10.26-48.62l-.67-73.63Z" fill="#D87E2E"/><path d="M286.55 224.92c.05.13-5.86 2.48-13.2 5.24-7.34 2.76-13.35 4.84-13.35 4.75 0-.09 5.86-2.48 13.2-5.24 7.34-2.76 13.3-4.89 13.35-4.75Zm1.45 23.93c.05.13-5.86 2.48-13.21 5.24-7.35 2.76-13.33 4.88-13.38 4.75-.05-.13 5.86-2.48 13.2-5.24 7.34-2.76 13.39-4.89 13.39-4.75Zm1.49 23.93c.05.13-5.86 2.48-13.21 5.24-7.35 2.76-13.28 4.88-13.38 4.75-.1-.13 5.86-2.48 13.2-5.24 7.34-2.76 13.34-4.89 13.39-4.75Zm1.51 23.93c.05.13-5.86 2.48-13.21 5.24-7.35 2.76-13.34 4.88-13.39 4.75-.05-.13 5.87-2.48 13.21-5.24 7.34-2.76 13.3-4.89 13.39-4.75Zm1.43 23.93a4.432 4.432 0 0 1-.92.45c-.6.26-1.48.62-2.56 1.05-2.18.87-5.19 2-8.53 3.29-3.34 1.29-6.38 2.36-8.59 3.14-1.1.39-2 .7-2.62.9a3.606 3.606 0 0 1-1 .26c.287-.188.596-.339.92-.45.6-.26 1.47-.62 2.56-1 2.17-.87 5.19-2 8.53-3.29 3.34-1.29 6.38-2.37 8.59-3.14 1.1-.39 2-.7 2.62-.9a3.447 3.447 0 0 1 1-.31Zm6.83 21.89c-.965.519-1.968.964-3 1.33-1.9.76-4.53 1.78-7.44 2.88-2.91 1.1-5.57 2.06-7.49 2.73a20.82 20.82 0 0 1-3.16 1 20.647 20.647 0 0 1 3-1.33c1.89-.77 4.52-1.79 7.44-2.88 2.92-1.09 5.56-2.06 7.49-2.73a19.627 19.627 0 0 1 3.16-1Zm14.63 20.08c-.861.479-1.761.884-2.69 1.21-1.69.68-4 1.59-6.62 2.57-2.62.98-5 1.83-6.68 2.42-.913.37-1.857.661-2.82.87a16.271 16.271 0 0 1 2.69-1.21c1.68-.68 4-1.59 6.62-2.57 2.62-.98 5-1.83 6.68-2.43.913-.37 1.856-.658 2.82-.86Zm24.311 13.17c-.863.472-1.763.874-2.69 1.2-1.69.69-4 1.6-6.62 2.57-2.62.97-5 1.83-6.68 2.43-.913.37-1.857.658-2.82.86.86-.479 1.76-.884 2.69-1.21 1.69-.68 4-1.59 6.62-2.57 2.62-.98 5-1.83 6.68-2.42.91-.376 1.854-.664 2.82-.86Zm73.319-51.07c.06.13-7.53 3.67-16.95 7.91-9.42 4.24-17.11 7.56-17.17 7.43-.06-.13 7.53-3.67 17-7.91 9.47-4.24 17.06-7.56 17.12-7.43Zm4.98-20.5c.06.13-6.21 3.07-14 6.57-7.79 3.5-14.15 6.24-14.21 6.11-.06-.13 6.2-3.08 14-6.58s14.15-6.23 14.21-6.1Zm2.291-23.03c.06.13-6.21 3.07-14 6.57-7.79 3.5-14.15 6.24-14.21 6.11-.06-.13 6.2-3.08 14-6.58s14.15-6.28 14.21-6.1Zm2.29-23.04c.06.13-6.2 3.08-14 6.58s-14.15 6.23-14.21 6.1c-.06-.13 6.21-3.07 14-6.57 7.79-3.5 14.13-6.25 14.21-6.11Zm2.299-23.03c.05.13-6.21 3.08-14 6.58s-14.15 6.23-14.21 6.1c-.06-.13 6.21-3.07 14-6.58 7.79-3.51 14.15-6.21 14.21-6.1Zm-4.589-20.51c.06.13-6.21 3.08-14 6.58s-14.15 6.23-14.21 6.1c-.06-.13 6.2-3.08 14-6.58s14.15-6.23 14.21-6.1Zm0-22.08c.06.13-6.21 3.08-14 6.58s-14.15 6.23-14.21 6.1c-.06-.13 6.2-3.08 14-6.58s14.15-6.23 14.21-6.1Zm-2.291-20.79c.06.13-6.21 3.07-14 6.57-7.79 3.5-14.15 6.24-14.21 6.11-.06-.13 6.2-3.08 14-6.58s14.15-6.23 14.21-6.1Zm-19.75-14.49a85.55 85.55 0 0 1-8.47 4.1 85.536 85.536 0 0 1-8.69 3.62 81.748 81.748 0 0 1 8.47-4.1 85.536 85.536 0 0 1 8.69-3.62Zm-10.56-8.87a88.213 88.213 0 0 1-8.47 4.09 85.536 85.536 0 0 1-8.69 3.62 85.724 85.724 0 0 1 8.47-4.08 85.378 85.378 0 0 1 8.69-3.63Zm-98.51 47.54c.05.13-5.86 2.48-13.2 5.24-7.34 2.76-13.34 4.89-13.39 4.75-.05-.14 5.86-2.48 13.21-5.24 7.35-2.76 13.33-4.88 13.38-4.75Zm7.32-29.84c.06.13-6.36 2.66-14.31 5.66s-14.46 5.3-14.51 5.17c-.05-.13 6.36-2.67 14.32-5.66s14.5-5.31 14.5-5.17Zm19.27-29.54c.05.14-8.08 3.31-18.16 7.1-10.08 3.79-18.29 6.75-18.34 6.62-.05-.13 8.08-3.32 18.16-7.11 10.08-3.79 18.29-6.74 18.34-6.61Z" fill="#D87E2E"/><path d="m456.31 325-.42-.14-1.2-.47c-.53-.19-1.22-.34-2-.56a20.563 20.563 0 0 0-2.83-.35c-4.27-.27-10.67 1.28-16.86 5.92a47.956 47.956 0 0 0-8.93 8.83c-2.87 3.51-5.68 7.48-8.87 11.48a52.574 52.574 0 0 1-11.52 11.17 41.574 41.574 0 0 1-15.94 6.46 40.996 40.996 0 0 1-17.19-.57 81.326 81.326 0 0 1-15.06-5.59c-4.65-2.15-9-4.34-13.14-6.15a69.773 69.773 0 0 0-11.94-4.03 44.096 44.096 0 0 0-10.3-1.18c-2.617.02-5.221.373-7.75 1.05a28.257 28.257 0 0 0-4.62 1.81l-1.14.6a1.98 1.98 0 0 1-.4.19l.37-.23 1.12-.65a25.63 25.63 0 0 1 4.61-1.91 30.728 30.728 0 0 1 7.8-1.15 43.917 43.917 0 0 1 10.39 1.11 69.922 69.922 0 0 1 12 4c4.18 1.8 8.53 4 13.17 6.12a80.69 80.69 0 0 0 15 5.52 40.463 40.463 0 0 0 17 .56 41.261 41.261 0 0 0 15.75-6.37 52.102 52.102 0 0 0 11.44-11.05c3.19-4 6-7.94 8.91-11.46a48.196 48.196 0 0 1 9-8.85c6.28-4.64 12.77-6.16 17.09-5.82.961.063 1.917.193 2.86.39.8.25 1.49.41 2 .62l1.19.52.41.18Zm6.31-66.7c0 .05-.71.14-1.95.55a19.457 19.457 0 0 0-4.83 2.59c-1.9 1.33-4 3.19-6.41 5.11a45.683 45.683 0 0 1-8.59 5.29 47.226 47.226 0 0 1-17.66 4.56c-1.17.1-2.24.07-3.17.09-.93.02-1.73-.06-2.38-.11l-1.51-.15a1.643 1.643 0 0 1-.51-.09c.173-.024.348-.024.52 0l1.51.05h2.37c.93-.05 2 0 3.14-.16a49.368 49.368 0 0 0 17.47-4.67 47.895 47.895 0 0 0 8.52-5.2c2.43-1.88 4.54-3.73 6.5-5a18.01 18.01 0 0 1 5-2.48c.486-.138.981-.245 1.48-.32.163-.046.332-.066.5-.06ZM332 281.47a2.668 2.668 0 0 1-.54-.08c-.36-.08-.89-.16-1.56-.35a23.378 23.378 0 0 1-5.36-2.35 54.253 54.253 0 0 1-7-5.11c-2.51-2.08-5.19-4.45-8.26-6.57a28.296 28.296 0 0 0-9.49-4.35 29.288 29.288 0 0 0-14.24.06c-1.33.34-2.05.6-2.06.55.155-.101.323-.179.5-.23.34-.13.84-.33 1.51-.52a25.978 25.978 0 0 1 5.75-1 28.005 28.005 0 0 1 8.65.71 28.374 28.374 0 0 1 9.67 4.39c3.11 2.15 5.79 4.54 8.28 6.63a57.388 57.388 0 0 0 6.88 5.17 25.994 25.994 0 0 0 5.23 2.47c.69.157 1.371.351 2.04.58Zm.171-94.53c-.539.25-1.098.454-1.67.61-.656.231-1.324.428-2 .59-.79.2-1.68.47-2.69.65-1.01.18-2.1.43-3.3.58-1.2.15-2.47.29-3.82.41a58.095 58.095 0 0 1-8.8-.11 58.807 58.807 0 0 1-8.67-1.53c-1.3-.37-2.55-.71-3.68-1.12-1.13-.41-2.19-.79-3.13-1.18-.94-.39-1.78-.8-2.52-1.14-.74-.34-1.35-.67-1.85-.95a11.44 11.44 0 0 1-1.52-.91 12.26 12.26 0 0 1 1.61.73c.51.25 1.14.56 1.88.87.74.31 1.58.71 2.54 1.05.96.34 2 .77 3.13 1.12 1.13.35 2.36.71 3.66 1.06a57.01 57.01 0 0 0 17.32 1.63c1.34-.11 2.61-.18 3.8-.36s2.28-.33 3.28-.51 1.89-.4 2.68-.57c.79-.17 1.47-.35 2-.5a12.486 12.486 0 0 1 1.75-.42Zm124.769-.25a2.14 2.14 0 0 1-.42-.21l-1.16-.67c-.601-.366-1.222-.7-1.86-1a26.382 26.382 0 0 0-2.53-1.19l-1.5-.63c-.53-.21-1.09-.37-1.67-.57-1.14-.42-2.41-.71-3.74-1.06a41.387 41.387 0 0 0-17.68-.15 38.199 38.199 0 0 0-3.76 1c-.58.19-1.15.34-1.68.54l-1.51.6c-.869.34-1.72.724-2.55 1.15-.644.293-1.268.627-1.87 1l-1.18.65c-.27.14-.42.21-.43.19.114-.11.242-.204.38-.28l1.12-.74a16.136 16.136 0 0 1 1.85-1.06c.821-.461 1.67-.872 2.54-1.23l1.51-.64c.53-.21 1.11-.37 1.69-.57a35.805 35.805 0 0 1 3.79-1.05 40.122 40.122 0 0 1 17.89.16c1.34.36 2.62.67 3.77 1.11.58.21 1.15.38 1.67.61l1.51.66c.861.381 1.702.805 2.52 1.27.63.327 1.238.694 1.82 1.1l1.12.76c.25.13.42.23.36.25Zm-61.14-67.93c-.225.17-.466.317-.72.44l-2.08 1.15c-1.85 1-4.53 2.39-7.89 4.07-6.7 3.31-16.11 7.84-27.25 10.66a74.675 74.675 0 0 1-16 2.22 57.353 57.353 0 0 1-13.13-1.13 45.55 45.55 0 0 1-8.5-2.59c-1-.38-1.69-.78-2.19-1a5.735 5.735 0 0 1-.75-.39c.274.071.538.171.79.3.52.19 1.24.56 2.23.91a49.096 49.096 0 0 0 8.49 2.42 58.398 58.398 0 0 0 13.05 1 75.644 75.644 0 0 0 15.87-2.25c11.07-2.8 20.49-7.25 27.22-10.48l8-3.93 2.06-1.06c.259-.131.526-.244.8-.34Z" fill="#fff"/><path d="M64.59 300.92a5.526 5.526 0 0 1-1.08.61c-.71.36-1.75.86-3 1.46a298.09 298.09 0 0 1-10.17 4.52c-4.01 1.7-7.66 3.14-10.32 4.15-1.33.5-2.42.89-3.17 1.15-.384.159-.782.28-1.19.36a5.39 5.39 0 0 1 1.12-.55l3.1-1.31L50.1 307l10.22-4.37 3.11-1.32c.373-.169.761-.3 1.16-.39ZM80.87 271c-.485.298-.99.562-1.51.79-1 .48-2.42 1.16-4.2 2-3.57 1.62-8.52 3.79-14 6.12s-10.55 4.32-14.16 5.74c-1.82.72-3.3 1.28-4.34 1.65a9.114 9.114 0 0 1-1.62.52c.5-.273 1.017-.51 1.55-.71l4.27-1.8 14.11-5.93 14.08-6 4.27-1.81a8.821 8.821 0 0 1 1.55-.57Zm19.87-26.73c-.503.311-1.032.578-1.58.8-1 .48-2.53 1.16-4.39 2-3.73 1.63-8.9 3.8-14.64 6.13s-11 4.36-14.79 5.79c-1.9.71-3.45 1.27-4.52 1.64a9.782 9.782 0 0 1-1.69.52 13.482 13.482 0 0 1 1.62-.71l4.46-1.8 14.72-5.93 14.69-6 4.46-1.81a11.435 11.435 0 0 1 1.66-.63Zm79.59 30.84a5.655 5.655 0 0 1-1.09.59c-.71.35-1.75.83-3.05 1.41-2.58 1.17-6.18 2.72-10.19 4.35-4.01 1.63-7.68 3-10.34 4-1.34.48-2.42.86-3.17 1.11a6.564 6.564 0 0 1-1.19.33 5.225 5.225 0 0 1 1.11-.52l3.12-1.26 10.28-4.12 10.24-4.2 3.11-1.27a5.652 5.652 0 0 1 1.17-.42Zm-3.24 54.94a5.387 5.387 0 0 1-1.05.59c-.69.34-1.7.83-2.95 1.41-2.5 1.17-6 2.72-9.87 4.34-3.87 1.62-7.45 3-10 4-1.3.48-2.35.86-3.08 1.1-.373.156-.762.27-1.16.34a5.33 5.33 0 0 1 1.08-.53l3-1.26 10-4.11 9.92-4.2 3-1.26a5.746 5.746 0 0 1 1.11-.42Zm-.459 19.26c-.311.23-.646.425-1 .58-.69.35-1.7.83-3 1.42-2.5 1.16-6 2.71-9.88 4.34-3.88 1.63-7.44 3-10 4-1.29.48-2.34.86-3.08 1.11-.368.16-.754.271-1.15.33a6.135 6.135 0 0 1 1.08-.52l3-1.26 10-4.11 9.93-4.2 3-1.26a4.752 4.752 0 0 1 1.1-.43Zm-.46 19.25a5.876 5.876 0 0 1-1 .59c-.69.35-1.7.83-3 1.41-2.51 1.17-6 2.72-9.88 4.34-3.88 1.62-7.44 3-10 4-1.29.48-2.35.86-3.08 1.1a5.775 5.775 0 0 1-1.15.34c.338-.217.7-.395 1.08-.53l3-1.25 10-4.12 9.93-4.2 3-1.26c.35-.18.719-.321 1.1-.42Zm4.679-113.79a6.483 6.483 0 0 1-1.09.59c-.71.35-1.75.83-3 1.41-2.58 1.17-6.18 2.72-10.19 4.35-4.01 1.63-7.68 3-10.34 4-1.34.48-2.42.86-3.17 1.1a6.15 6.15 0 0 1-1.19.34 4.859 4.859 0 0 1 1.11-.53l3.12-1.26 10.28-4.11 10.24-4.2 3.11-1.26a5.631 5.631 0 0 1 1.12-.43Zm.52-20.34a6.483 6.483 0 0 1-1.09.59c-.71.34-1.75.83-3.05 1.41-2.58 1.17-6.18 2.72-10.19 4.34-4.01 1.62-7.67 3-10.34 4-1.34.48-2.42.85-3.17 1.1a6.17 6.17 0 0 1-1.19.34 4.828 4.828 0 0 1 1.12-.53l3.11-1.26 10.28-4.11 10.24-4.2 3.11-1.26a5.652 5.652 0 0 1 1.17-.42Zm.52-20.34c-.314.22-.649.407-1 .56-.67.33-1.66.79-2.89 1.35-2.47 1.12-5.89 2.61-9.71 4.15-3.82 1.54-7.32 2.87-9.86 3.78-1.27.45-2.3.81-3 1a5.308 5.308 0 0 1-1.14.32 5.124 5.124 0 0 1 1.07-.51l3-1.2 9.79-3.91 9.76-4 3-1.2c.313-.15.642-.264.98-.34Zm2.3-19.01a29.205 29.205 0 0 1-5 2.13 28.796 28.796 0 0 1-5.19 1.65 29.213 29.213 0 0 1 5-2.14 28.17 28.17 0 0 1 5.19-1.64Zm-63.62 21.51c-.505.303-1.029.57-1.57.8-1 .48-2.53 1.15-4.4 2-3.72 1.63-8.89 3.8-14.64 6.13s-11 4.37-14.78 5.79c-1.9.71-3.45 1.27-4.52 1.64a12.98 12.98 0 0 1-1.69.53c.518-.286 1.06-.527 1.62-.72l4.46-1.79L99.77 225l14.69-6 4.45-1.81a13.199 13.199 0 0 1 1.66-.6Zm19.841-27.69a10.55 10.55 0 0 1-1.58.8c-1 .48-2.53 1.16-4.39 2-3.72 1.62-8.9 3.8-14.64 6.12-5.74 2.32-11 4.37-14.78 5.79-1.91.72-3.45 1.28-4.53 1.65a10.09 10.09 0 0 1-1.68.52 11.956 11.956 0 0 1 1.61-.71l4.46-1.8 14.72-5.93 14.7-6 4.45-1.82a11.956 11.956 0 0 1 1.66-.62Zm37.409-54.3c-.509.301-1.036.568-1.58.8-1 .48-2.53 1.15-4.39 2-3.73 1.63-8.9 3.8-14.64 6.13s-11 4.37-14.79 5.79c-1.9.71-3.44 1.27-4.52 1.64-.55.218-1.114.395-1.69.53.52-.283 1.061-.524 1.62-.72l4.46-1.79L157 143l14.69-6 4.46-1.81a11.91 11.91 0 0 1 1.67-.59Z" fill="#D87E2E"/><path d="M214.52 125.83c-.403.28-.828.527-1.27.74-.83.45-2.07 1-3.63 1.7a53.889 53.889 0 0 1-5.6 2 56.741 56.741 0 0 1-14.34 2.34c-2 .073-4.004.033-6-.12-1.69-.13-3-.29-4-.46a8.525 8.525 0 0 1-1.44-.29c.492-.017.984.013 1.47.09.93.11 2.29.21 4 .29 1.71.08 3.69.1 5.91 0a67.774 67.774 0 0 0 7.18-.74 69.214 69.214 0 0 0 7-1.58c2.13-.62 4-1.26 5.59-1.88 1.59-.62 2.82-1.15 3.68-1.54.465-.229.95-.413 1.45-.55Zm-71 111.06a7.361 7.361 0 0 1-.9-1l-2.36-2.82a112.57 112.57 0 0 0-8.38-8.75 30.646 30.646 0 0 0-5.25-4 15.96 15.96 0 0 0-5-1.94 14.048 14.048 0 0 0-4.95 0s.11-.06.33-.13c.325-.108.66-.185 1-.23a11.213 11.213 0 0 1 3.71 0c1.822.317 3.573.957 5.17 1.89a29.134 29.134 0 0 1 5.37 4.07 87.434 87.434 0 0 1 8.3 8.9c1 1.21 1.74 2.22 2.24 2.92.278.337.519.702.72 1.09Zm79.77 30.21s-.13.12-.39.3-.65.47-1.19.77a29.56 29.56 0 0 1-4.71 2.23 30.604 30.604 0 0 1-32-6.55 28.13 28.13 0 0 1-3.44-3.89c-.37-.49-.61-.9-.79-1.17-.18-.27-.26-.42-.24-.43.424.471.821.965 1.19 1.48a34.101 34.101 0 0 0 3.53 3.74 31.157 31.157 0 0 0 31.59 6.47 32.68 32.68 0 0 0 4.71-2.06 18.149 18.149 0 0 1 1.74-.89Zm29.13 63.32s-.1-.15-.28-.47c-.18-.32-.46-.78-.8-1.38a38.35 38.35 0 0 0-3.42-5.07l-1.36-1.6-.73-.87-.85-.83-1.8-1.78-2.1-1.74a47.26 47.26 0 0 0-11-6.53 45.126 45.126 0 0 0-15-3.49 41.781 41.781 0 0 0-17.43 2.8c-5.85 2.3-11.5 5.77-17.48 9.13a82.816 82.816 0 0 1-9.39 4.66 38.344 38.344 0 0 1-10.47 2.75 33.788 33.788 0 0 1-10.78-.65 48.279 48.279 0 0 1-9.93-3.35 104.042 104.042 0 0 1-16.92-10.28c-5.13-3.65-10-7.18-14.81-10a53.307 53.307 0 0 0-14.23-6.08 36.499 36.499 0 0 0-12.71-.84 27.113 27.113 0 0 0-9.23 2.67 23.32 23.32 0 0 0-5 3.45L65.54 302c-.25.25-.39.37-.39.37s.11-.14.36-.41l1.09-1.17a22.903 22.903 0 0 1 5-3.55 27.084 27.084 0 0 1 9.3-2.78 36.544 36.544 0 0 1 12.83.77 54.14 54.14 0 0 1 14.36 6.06c4.87 2.82 9.73 6.34 14.87 10a103.771 103.771 0 0 0 16.85 10.2 47.385 47.385 0 0 0 9.82 3.35c3.487.779 7.076.996 10.63.64a37.975 37.975 0 0 0 10.31-2.7 85.18 85.18 0 0 0 9.34-4.62c6-3.35 11.64-6.83 17.54-9.14a37.742 37.742 0 0 1 4.46-1.44c.75-.19 1.49-.42 2.23-.57l2.24-.37a42.775 42.775 0 0 1 8.7-.4 45.478 45.478 0 0 1 15.17 3.58 47.831 47.831 0 0 1 11 6.64c.72.61 1.42 1.21 2.1 1.77l1.79 1.81.84.84c.25.3.5.59.73.88.48.57.93 1.11 1.35 1.63a35.436 35.436 0 0 1 3.35 5.14l.75 1.41c.19.31.26.48.26.48Zm-30.22 41.77a1.991 1.991 0 0 1-.51.13l-1.48.28c-.777.157-1.561.274-2.35.35-.92.09-2 .24-3.14.27l-1.84.08h-2c-1.37 0-2.84-.13-4.38-.25a60.484 60.484 0 0 1-9.87-1.92 61.3 61.3 0 0 1-9.36-3.68c-1.36-.73-2.67-1.4-3.83-2.15-.58-.36-1.16-.69-1.69-1l-1.5-1.05c-1-.65-1.77-1.34-2.5-1.92a22.079 22.079 0 0 1-1.81-1.55c-.43-.42-.8-.76-1.09-1a2.22 2.22 0 0 1-.36-.39c.155.086.299.19.43.31l1.16 1c.49.42 1.1.93 1.85 1.47.75.54 1.55 1.22 2.53 1.85l1.51 1c.53.35 1.11.67 1.69 1 1.16.73 2.47 1.38 3.83 2.09a57.149 57.149 0 0 0 19.06 5.55c1.53.13 3 .29 4.35.3.68 0 1.34.06 2 0h1.82c1.16 0 2.21-.13 3.13-.19.92-.06 1.71-.16 2.35-.26l1.49-.18c.162-.072.334-.119.51-.14Z" fill="#fff"/><path d="M501.26 319.61a6.003 6.003 0 0 1-1 .75c-.65.46-1.61 1.1-2.8 1.88-2.39 1.56-5.71 3.66-9.44 5.9a293.76 293.76 0 0 1-9.64 5.56c-1.24.68-2.26 1.23-3 1.59a6.05 6.05 0 0 1-1.13.52c.304-.273.64-.508 1-.7l2.89-1.73 9.56-5.69 9.5-5.76 2.89-1.74a5.618 5.618 0 0 1 1.17-.58Zm11.9-31.94a10.99 10.99 0 0 1-1.38 1c-.9.61-2.23 1.48-3.88 2.54-3.3 2.11-7.9 5-13 8s-9.8 5.81-13.21 7.73c-1.7 1-3.09 1.73-4.06 2.24a11.97 11.97 0 0 1-1.53.75c.45-.348.929-.659 1.43-.93l4-2.38 13.13-7.85 13.09-7.91 4-2.39a10.7 10.7 0 0 1 1.41-.8Zm15.92-29.23c-.457.37-.942.705-1.45 1-1 .62-2.34 1.5-4.07 2.57-3.46 2.13-8.28 5-13.64 8.12-5.36 3.12-10.25 5.87-13.82 7.87-1.78 1-3.23 1.75-4.24 2.27-.514.29-1.049.541-1.6.75.476-.347.977-.658 1.5-.93l4.16-2.41 13.74-7.94 13.71-8 4.15-2.42a11.667 11.667 0 0 1 1.56-.88Zm83.14 19.34a5.644 5.644 0 0 1-1 .73c-.65.45-1.62 1.07-2.81 1.83-2.4 1.52-5.74 3.56-9.48 5.74a261.8 261.8 0 0 1-9.69 5.38c-1.25.67-2.27 1.19-3 1.54a5.733 5.733 0 0 1-1.13.5 5.797 5.797 0 0 1 1-.68l2.91-1.68 9.59-5.52 9.55-5.59 2.91-1.69c.361-.23.747-.418 1.15-.56Zm4.52 54.84a5.088 5.088 0 0 1-1 .73c-.63.44-1.56 1.06-2.72 1.82-2.31 1.5-5.54 3.53-9.16 5.69-3.62 2.16-6.95 4-9.38 5.34-1.21.66-2.2 1.18-2.89 1.53a4.972 4.972 0 0 1-1.1.49 5.744 5.744 0 0 1 1-.67l2.81-1.67 9.29-5.47 9.24-5.56 2.81-1.67c.343-.23.712-.418 1.1-.56Zm2.26 19.13a5.118 5.118 0 0 1-1 .73c-.63.44-1.56 1.06-2.72 1.82-2.31 1.5-5.54 3.53-9.16 5.68s-6.95 4-9.38 5.35c-1.21.66-2.2 1.18-2.89 1.53a4.993 4.993 0 0 1-1.1.49 5.744 5.744 0 0 1 1-.67l2.81-1.67 9.29-5.47 9.24-5.56 2.81-1.67c.343-.23.712-.418 1.1-.56Zm2.24 19.13a5.088 5.088 0 0 1-1 .73c-.63.44-1.56 1.06-2.72 1.81-2.31 1.51-5.54 3.54-9.16 5.69-3.62 2.15-6.95 4-9.38 5.35-1.21.66-2.2 1.18-2.89 1.53a5.73 5.73 0 0 1-1.1.49 5.744 5.744 0 0 1 1-.67l2.81-1.67 9.29-5.47 9.24-5.56 2.81-1.67c.343-.23.712-.418 1.1-.56Zm-11.37-113.32c-.307.28-.643.528-1 .74-.66.44-1.62 1.07-2.82 1.83a310.005 310.005 0 0 1-19.16 11.12c-1.26.66-2.28 1.19-3 1.54a5.785 5.785 0 0 1-1.13.5c.31-.259.645-.487 1-.68l2.9-1.68 9.6-5.52 9.55-5.6 2.9-1.68c.365-.23.754-.421 1.16-.57Zm-2.35-20.21c-.304.283-.64.532-1 .74-.66.44-1.62 1.06-2.82 1.82-2.39 1.52-5.73 3.57-9.48 5.74-3.75 2.17-7.17 4.06-9.68 5.39-1.25.66-2.27 1.19-3 1.54-.354.21-.734.375-1.13.49.308-.26.643-.484 1-.67l2.9-1.69 9.6-5.51 9.55-5.6 2.9-1.69a6.325 6.325 0 0 1 1.16-.56Zm-2.339-20.21a5.138 5.138 0 0 1-.94.7c-.63.43-1.55 1-2.69 1.75-2.27 1.45-5.45 3.4-9 5.47s-6.84 3.87-9.23 5.13l-2.85 1.46a5.393 5.393 0 0 1-1.08.47 5.89 5.89 0 0 1 1-.65l2.76-1.61 9.15-5.25 9.09-5.34 2.77-1.6a5.144 5.144 0 0 1 1.02-.53ZM604.78 198a28.29 28.29 0 0 1-4.66 2.82 30 30 0 0 1-4.91 2.37 28.29 28.29 0 0 1 4.66-2.82 29.601 29.601 0 0 1 4.91-2.37Zm-59.96 30.24c-.452.372-.934.707-1.44 1-1 .62-2.35 1.5-4.08 2.57-3.45 2.13-8.27 5-13.63 8.12-5.36 3.12-10.25 5.87-13.82 7.81-1.78 1-3.24 1.75-4.25 2.27-.512.286-1.044.537-1.59.75.474-.35.975-.661 1.5-.93l4.16-2.41 13.74-7.94 13.7-8 4.16-2.42c.496-.31 1.014-.584 1.55-.82ZM560.57 198c-.457.37-.942.705-1.45 1-1 .62-2.34 1.5-4.07 2.57-3.46 2.13-8.28 5-13.63 8.12-5.35 3.12-10.26 5.87-13.83 7.81-1.78 1-3.23 1.75-4.24 2.27-.514.29-1.049.541-1.6.75.476-.347.977-.658 1.5-.93l4.16-2.41 13.74-7.94 13.71-8 4.16-2.42a11.36 11.36 0 0 1 1.55-.82Zm14.26-29.95c-.457.37-.942.705-1.45 1-1 .62-2.34 1.5-4.07 2.57-3.46 2.13-8.28 5-13.64 8.12-5.36 3.12-10.25 5.87-13.82 7.81-1.78 1-3.23 1.75-4.24 2.27-.515.288-1.05.538-1.6.75.476-.347.977-.658 1.5-.93l4.16-2.41 13.74-7.94 13.71-8 4.15-2.42a11.039 11.039 0 0 1 1.56-.82ZM590 139c-.457.37-.942.705-1.45 1-.95.62-2.34 1.5-4.07 2.57-3.46 2.13-8.28 5-13.64 8.13-5.36 3.13-10.25 5.86-13.82 7.81-1.78 1-3.23 1.74-4.24 2.26-.514.293-1.049.547-1.6.76.47-.358.973-.672 1.5-.94l4.16-2.4 13.74-8 13.71-8 4.15-2.42c.5-.295 1.021-.552 1.56-.77Z" fill="#D87E2E"/><path d="M645.81 172.16a4.838 4.838 0 0 1-.48.73c-.473.7-.99 1.368-1.55 2a31.585 31.585 0 0 1-7 6.06 34.088 34.088 0 0 1-12.8 4.9c-2.688.43-5.421.507-8.13.23a41.074 41.074 0 0 1-8.52-1.87c-5.7-1.83-10.86-4.22-15.79-5.7A34.148 34.148 0 0 0 578.1 177a19.518 19.518 0 0 0-8.61 2.91c-.704.459-1.372.971-2 1.53a4.48 4.48 0 0 1-.66.57c.178-.23.375-.444.59-.64.593-.6 1.239-1.146 1.93-1.63a19.169 19.169 0 0 1 8.68-3.1 33.901 33.901 0 0 1 13.66 1.36c5 1.47 10.16 3.84 15.8 5.67a41.91 41.91 0 0 0 8.42 1.86c2.665.272 5.353.202 8-.21a34.11 34.11 0 0 0 12.67-4.73 33.17 33.17 0 0 0 7-5.88 23.235 23.235 0 0 0 1.61-1.92c.192-.224.399-.435.62-.63Zm-20.739-46.99a8.07 8.07 0 0 1-1.15.91c-.76.57-1.9 1.32-3.35 2.19a54.236 54.236 0 0 1-5.26 2.77 62.903 62.903 0 0 1-6.8 2.61 61.973 61.973 0 0 1-7.08 1.73 57.37 57.37 0 0 1-5.9.72c-1.69.11-3.06.13-4 .1a7.091 7.091 0 0 1-1.47-.09 7.846 7.846 0 0 1 1.46-.11c.94 0 2.3-.12 4-.27 1.7-.15 3.66-.42 5.84-.82a70.89 70.89 0 0 0 7-1.75 67.752 67.752 0 0 0 6.76-2.56c2-.91 3.81-1.81 5.27-2.65 1.46-.84 2.63-1.53 3.42-2a8.5 8.5 0 0 1 1.26-.78ZM570.4 245.11a7.6 7.6 0 0 1-1-.88l-2.74-2.45a112.128 112.128 0 0 0-9.52-7.49 30.503 30.503 0 0 0-5.77-3.26 15.865 15.865 0 0 0-5.22-1.21 14.214 14.214 0 0 0-4.91.66s.1-.08.31-.18c.304-.144.618-.264.94-.36a11.16 11.16 0 0 1 3.68-.49c1.847.058 3.669.444 5.38 1.14a29.081 29.081 0 0 1 5.88 3.27 87.938 87.938 0 0 1 9.48 7.65c1.14 1.06 2 2 2.63 2.58.325.306.613.648.86 1.02Zm83.22 18.7s-.1.13-.34.35c-.24.22-.58.55-1.07.92a28.14 28.14 0 0 1-4.33 2.87 30.655 30.655 0 0 1-32.57-2 28.063 28.063 0 0 1-3.94-3.37c-.44-.43-.74-.8-1-1a1.724 1.724 0 0 1-.3-.4s.5.46 1.39 1.3a33.172 33.172 0 0 0 4 3.21 31.135 31.135 0 0 0 32.18 2 33.245 33.245 0 0 0 4.38-2.7 17.72 17.72 0 0 1 1.6-1.18Zm37.76 58.58a4.515 4.515 0 0 1-.38-.39c-.24-.29-.56-.71-1-1.25a39.124 39.124 0 0 0-4.1-4.54l-1.58-1.4-.84-.75-1-.71-2-1.5-2.33-1.43a47.176 47.176 0 0 0-11.78-4.92 45.25 45.25 0 0 0-15.37-1.38 41.825 41.825 0 0 0-16.86 5.23c-5.47 3.1-10.57 7.33-16 11.5a84.894 84.894 0 0 1-8.64 5.93 38.353 38.353 0 0 1-10 4.19 34.18 34.18 0 0 1-10.77.87 48.088 48.088 0 0 1-10.31-2 103.042 103.042 0 0 1-18.19-7.79c-5.6-2.9-10.89-5.7-16.07-7.81a53.844 53.844 0 0 0-15-4 36.5 36.5 0 0 0-12.7 1 27.085 27.085 0 0 0-8.76 3.94 24.177 24.177 0 0 0-4.5 4.12l-.95 1.28c-.22.29-.34.43-.34.43s.09-.16.29-.46l.92-1.31a22.62 22.62 0 0 1 4.46-4.22 26.696 26.696 0 0 1 8.81-4.06 36.511 36.511 0 0 1 12.81-1.05 53.993 53.993 0 0 1 15.07 4c5.22 2.1 10.53 4.9 16.13 7.78a103.97 103.97 0 0 0 18.11 7.74 48.025 48.025 0 0 0 10.2 1.93c3.56.282 7.142-.008 10.61-.86a37.918 37.918 0 0 0 9.83-4.13 82.906 82.906 0 0 0 8.59-5.89c5.44-4.15 10.57-8.39 16.09-11.51a38.187 38.187 0 0 1 4.22-2.05c.71-.3 1.4-.62 2.12-.88l2.16-.68a43.271 43.271 0 0 1 8.56-1.63 45.63 45.63 0 0 1 15.52 1.42 47.188 47.188 0 0 1 11.84 5l2.33 1.45 2 1.54 1 .71.84.77 1.57 1.42a37.665 37.665 0 0 1 4 4.62c.4.56.72 1 .94 1.29l.45.44ZM667.32 368a2.688 2.688 0 0 1-.48.2l-1.42.49c-.748.261-1.509.485-2.28.67-.91.22-1.92.52-3.08.71l-1.8.34c-.63.11-1.29.17-2 .26-1.36.2-2.83.27-4.38.37a61.686 61.686 0 0 1-10-.51 59.623 59.623 0 0 1-9.78-2.34c-1.46-.52-2.85-1-4.1-1.58-.63-.28-1.25-.52-1.82-.8l-1.63-.83c-1.06-.51-1.95-1.08-2.75-1.55a22.375 22.375 0 0 1-2-1.28l-1.23-.87a2.068 2.068 0 0 1-.41-.33c.167.058.325.139.47.24l1.28.79c.54.35 1.22.77 2 1.2.78.43 1.7 1 2.76 1.47l1.64.79c.57.28 1.19.51 1.82.78 1.25.55 2.63 1 4.08 1.52A62.198 62.198 0 0 0 642 370c3.297.446 6.624.63 9.95.55 1.53-.09 3-.13 4.34-.32.67-.08 1.33-.13 2-.23l1.8-.3c1.15-.16 2.16-.44 3.07-.63.91-.19 1.67-.4 2.29-.59l1.45-.39c.137-.045.277-.075.42-.09Z" fill="#fff"/><path d="m459.08 221.54-7-1.1-43.37-14-25.36-7.33a27.328 27.328 0 0 0-21.95 1.5c-12 6.1-45.06 36.88-45.06 36.88l23.81 24.55-11.21 49.68c12.55 35.68 37.12 39.77 37.12 39.77a86.99 86.99 0 0 0 35.2-5.82C424.07 337 448 316.59 451 307.82c1.8-5.26 3.29-16.32 4.47-28.81l36.12-14.72 9.79-50-42.3 7.25Z" fill="#455A64"/><path d="M406.32 310s-.11.12-.35.31-.59.48-1.08.8a24.69 24.69 0 0 1-4.34 2.33 26.52 26.52 0 0 1-30-6.54 25.014 25.014 0 0 1-3-3.94c-.31-.49-.5-.9-.65-1.17a2.089 2.089 0 0 1-.19-.42c.363.472.697.967 1 1.48a27.946 27.946 0 0 0 3.08 3.79 26.79 26.79 0 0 0 29.55 6.46 27.952 27.952 0 0 0 4.37-2.17c1.06-.63 1.58-.99 1.61-.93ZM392.6 208.51c.04.075.067.156.08.24.05.19.11.42.18.71.15.62.36 1.55.61 2.74a66.808 66.808 0 0 1 1.43 10.23 32.334 32.334 0 0 1-.41 7.14 23.22 23.22 0 0 1-2.85 7.71 30.493 30.493 0 0 1-5.93 6.87c-2.35 2.1-4.95 4-7.6 6.06-5.64 4.23-11.12 8.06-16 11.54-4.88 3.48-9.23 6.59-12.69 9.21l-.11.09-.11-.09a74.866 74.866 0 0 1-6.94-6.25 17.048 17.048 0 0 1-1.63-1.92c-.17-.23-.27-.42-.35-.54a1.689 1.689 0 0 1-.11-.2l.54.68a22.99 22.99 0 0 0 1.68 1.85 88.143 88.143 0 0 0 7 6.11h-.22c3.44-2.66 7.74-5.83 12.64-9.32s10.36-7.34 16-11.57c2.64-2 5.24-3.95 7.57-6a30.225 30.225 0 0 0 5.86-6.74 22.565 22.565 0 0 0 2.83-7.53c.414-2.329.572-4.697.47-7.06a72.746 72.746 0 0 0-1.26-10.2c-.22-1.17-.39-2.09-.52-2.76a17.253 17.253 0 0 1-.12-.72.76.76 0 0 1-.04-.28ZM580.93 231c10.15-8.71 13.59-24.38 8-36.53l-14.3-1.47A20.385 20.385 0 0 0 585 172.44a27.308 27.308 0 0 1-31.23 5.75c-6.68-3.3-12.1-9.45-19.44-10.74-6.66-1.17-13.21 2-19.59 4.22-6.38 2.22-14.1 3.51-19.38-.72-4.18-3.35-5.48-9.22-5.21-14.58.27-5.36 1.82-10.58 2.15-15.93a36.189 36.189 0 0 0-11.59-28.22 27.453 27.453 0 0 0-17.952-18.185A27.458 27.458 0 0 0 437.6 98.51c-3.13 2.42-5.77 5.55-9.32 7.3-4 2-8.67 2-13 3s-8.9 3.94-9.36 8.39l-1.75 9.11c-.29.65-.6 1.29-1 1.92-3.68 6.46-11.22 10.71-12.87 18-.92 4.07.22 8.48-1.15 12.42-1.81 5.19-7.41 8.11-10 12.94-3.58 6.64-1.15 18.27 4.58 23.17 5.73 4.9 17.54 10.1 24.92 11.67 2-7.67 3.77-15.87 5.48-24.26 3 2.89 6.17 5.64 9.31 8.37 8.21 7.14 16.6 14.39 22.3 23.66 10.83 17.63 11 41 24.65 56.54 2.67 3.05 5.92 5.76 9.8 6.94 3.88 1.18 8.48.55 11.35-2.31 3.39-3.38 3.83-9.08 7.58-12.05 5-3.95 12.26-.8 17.61 2.63 3.88 2.48 7.76 5.1 12.15 6.46 4.39 1.36 9.51 1.27 13.25-1.41 3.74-2.68 5.38-8.4 2.68-12.13-1.08-1.49-2.69-2.53-3.76-4-1.07-1.47-1.38-3.87.09-5s3.88 0 5.63 1a33.537 33.537 0 0 0 28.679 2.519 33.538 33.538 0 0 0 20.061-20.649 27.783 27.783 0 0 1-14.58-1.74Z" fill="#263238"/><path d="M572 152.55c.458.333.889.7 1.29 1.1a14.985 14.985 0 0 1 3 3.89 11.296 11.296 0 0 1 1.1 3.37 7.994 7.994 0 0 1-3.56 7.91 5.918 5.918 0 0 1-2.52.91 5.766 5.766 0 0 1-2.8-.4c-3.71-1.52-5.58-5.81-9.59-7.72-3.91-2.07-8.91-2.21-13.71-1.11-4.8 1.1-9.49 3.71-14.22 6.37s-9.76 5.51-15.55 6.5a21.84 21.84 0 0 1-8.6-.06 16.422 16.422 0 0 1-4-1.48 15.58 15.58 0 0 1-3.36-2.48 18.946 18.946 0 0 1-4.3-6.82 30.754 30.754 0 0 1-1.78-7.53c-.53-5-.11-9.8-.06-14.23a41.84 41.84 0 0 0-1.21-12.22 28.13 28.13 0 0 0-1.91-5 28.897 28.897 0 0 0-2.43-4.13 31.109 31.109 0 0 0-5.11-5.7 32.395 32.395 0 0 0-3.91-2.88l-1.09-.65-.36-.23c.136.05.267.114.39.19l1.12.6a29.774 29.774 0 0 1 9.2 8.51 29.84 29.84 0 0 1 4.45 9.2 41.523 41.523 0 0 1 1.29 12.32c0 4.46-.43 9.22.11 14.17.273 2.53.861 5.016 1.75 7.4a18.458 18.458 0 0 0 4.2 6.63 14.731 14.731 0 0 0 3.24 2.4 16.657 16.657 0 0 0 3.85 1.43 21.57 21.57 0 0 0 8.4.05c5.68-1 10.66-3.79 15.39-6.44 4.73-2.65 9.4-5.26 14.36-6.39 2.4-.566 4.87-.774 7.33-.62a19.25 19.25 0 0 1 3.49.57c1.109.3 2.182.719 3.2 1.25 4.15 2 6 6.34 9.53 7.75a5.326 5.326 0 0 0 5-.44 7.676 7.676 0 0 0 3-3.56 7.53 7.53 0 0 0 .5-4 10.79 10.79 0 0 0-1-3.31 15.692 15.692 0 0 0-2.84-3.91c-.39-.4-.7-.69-.91-.88-.21-.19-.37-.33-.37-.33Zm-163.45 57.72s0-.15-.08-.45a7.891 7.891 0 0 0-.27-1.31 11.112 11.112 0 0 0-2.45-4.46 19.17 19.17 0 0 0-6.63-4.61c-2.9-1.33-6.5-2-10.44-2.72-3.94-.72-8.41-1.58-12.43-4.26a18.452 18.452 0 0 1-2.94-28.11c4.14-4.25 10-6.36 14.78-10.09a18.704 18.704 0 0 0 3.14-3.21 13.264 13.264 0 0 0 1.92-4c.8-2.84.73-5.81 1-8.7.108-1.448.377-2.88.8-4.27a10.718 10.718 0 0 1 2.11-3.74 14.997 14.997 0 0 1 7.15-4c2.57-.75 5.13-1.22 7.54-1.88a20.553 20.553 0 0 0 6.59-3 24.752 24.752 0 0 0 4.93-4.62 55.095 55.095 0 0 0 3.73-4.94c2.21-3.34 4.1-6.47 6.11-9a29.253 29.253 0 0 1 5.83-5.76 16.256 16.256 0 0 1 4.61-2.36 9.86 9.86 0 0 1 1.75-.44s-.61.14-1.72.54a16.592 16.592 0 0 0-4.52 2.43 29.143 29.143 0 0 0-5.72 5.77c-2 2.5-3.84 5.62-6 9a52.762 52.762 0 0 1-3.72 5.11 25.375 25.375 0 0 1-5 4.72 20.998 20.998 0 0 1-6.7 3c-2.44.68-5 1.15-7.53 1.9a14.43 14.43 0 0 0-6.92 3.85 10.236 10.236 0 0 0-2 3.56 19.106 19.106 0 0 0-.77 4.16c-.27 2.86-.19 5.85-1 8.8a13.585 13.585 0 0 1-2 4.12 19.165 19.165 0 0 1-3.24 3.3 66.647 66.647 0 0 1-7.69 4.89 33.536 33.536 0 0 0-7 5.15 17.99 17.99 0 0 0-4.967 14.356 18.004 18.004 0 0 0 7.787 13.044c3.9 2.63 8.34 3.47 12.25 4.26 3.91.79 7.56 1.44 10.48 2.81a19.126 19.126 0 0 1 6.67 4.74 11.01 11.01 0 0 1 2.4 4.57c.115.435.188.881.22 1.33-.06.37-.06.52-.06.52Z" fill="#263238"/><path d="M488.39 120.5a2.505 2.505 0 0 1-.76-.2 16.742 16.742 0 0 1-2-.8 26.428 26.428 0 0 1-10.69-9.19c-.4-.598-.764-1.219-1.09-1.86a2.428 2.428 0 0 1-.31-.73c.07 0 .64.92 1.7 2.37a30.729 30.729 0 0 0 10.55 9.08c1.59.83 2.64 1.25 2.6 1.33Zm33.25 68.21s-.63-.16-1.76-.4a28.694 28.694 0 0 0-4.86-.6 64.67 64.67 0 0 0-7.26.21c-2.74.19-5.76.47-8.95.4-3.021 0-6.015-.563-8.83-1.66a15.753 15.753 0 0 1-5.92-4.32 11.066 11.066 0 0 1-2.27-4.39 7.658 7.658 0 0 1-.21-1.33 1.682 1.682 0 0 1 0-.47c.06 0 .09.64.41 1.75a11.607 11.607 0 0 0 2.37 4.2 15.578 15.578 0 0 0 5.82 4.12 24.532 24.532 0 0 0 8.65 1.58c3.15.07 6.16-.19 8.91-.36a57.154 57.154 0 0 1 7.31-.1 25.28 25.28 0 0 1 4.89.77c.433.115.861.252 1.28.41.149.041.291.105.42.19Zm58.93 45.47s-.09 0-.29.13c-.285.13-.583.227-.89.29a7.114 7.114 0 0 1-3.58-.16 11.54 11.54 0 0 1-4.8-3 20.088 20.088 0 0 1-3.86-6.47c-1.09-2.56-2-5.5-3.79-8.22a21.61 21.61 0 0 0-3.17-3.87 25.37 25.37 0 0 0-4.24-3.21c-6.28-3.79-14.53-5.34-23-4.84s-16.44 2.1-23.81 2.61c-6.535.7-13.145.019-19.4-2a26.877 26.877 0 0 1-11.13-7 16.688 16.688 0 0 1-1.33-1.59 9.554 9.554 0 0 1-.86-1.25c-.2-.33-.36-.6-.49-.8a1.216 1.216 0 0 1-.15-.28s.08.08.2.25l.52.77c.275.422.575.826.9 1.21.419.546.874 1.063 1.36 1.55a27.104 27.104 0 0 0 11.09 6.76 47.194 47.194 0 0 0 19.25 1.88c7.33-.54 15.29-2.22 23.82-2.66 8.53-.44 16.85 1.07 23.23 4.95a25.793 25.793 0 0 1 4.31 3.29 22.102 22.102 0 0 1 3.22 4c1.81 2.79 2.7 5.76 3.77 8.31a19.716 19.716 0 0 0 3.72 6.41 11.397 11.397 0 0 0 4.65 3 7.004 7.004 0 0 0 3.5.25c.85-.14 1.24-.35 1.25-.31Z" fill="#455A64"/><path d="M423.29 120.49a7.477 7.477 0 0 0-7.62 6.65l-8.09 84.21c-1.4 11.84 14.09 37.23 26.78 38.63 12.81 1.41 14.07-4.8 15.73-16 2.78-18.74 3.71-25.8 3.7-25.69-.01.11 16.5-.55 22.62-21.18 3-10.26 4.78-27.51 5.75-41.67.87-12.75-5.46-29.36-18.24-29.69l-40.63 4.74Z" fill="#FFBE9D"/><path d="M476.58 156.59a2.712 2.712 0 0 1-3 2.38 2.613 2.613 0 0 1-2.47-2.8 2.737 2.737 0 0 1 3-2.39 2.61 2.61 0 0 1 2.47 2.81Zm1.15-5.45c-.32.38-2.48-1-5.41-.79-2.93.21-5 1.82-5.31 1.49-.16-.15.13-.81 1-1.56a7.497 7.497 0 0 1 4.22-1.63 7.162 7.162 0 0 1 4.33 1.07c.97.63 1.32 1.28 1.17 1.42Zm-26.88 6.97c-.35.35-2.37-1.24-5.3-1.31-2.93-.07-5.12 1.33-5.43 1-.15-.17.21-.8 1.17-1.45a7.41 7.41 0 0 1 4.36-1.21 7.182 7.182 0 0 1 4.2 1.49c.88.68 1.15 1.37 1 1.48Zm5.461 15.49c0-.17 1.86-.24 4.84-.23.75 0 1.47 0 1.67-.53a3.812 3.812 0 0 0-.21-2.26c-.46-1.893-.944-3.893-1.45-6-2-8.45-3.33-15.36-3-15.44.33-.08 2.23 6.72 4.22 15.17.48 2.08.93 4.06 1.36 6a4.324 4.324 0 0 1 0 3 1.863 1.863 0 0 1-1.36.92 5.063 5.063 0 0 1-1.29 0c-2.96-.23-4.79-.47-4.78-.63Z" fill="#263238"/><path d="M453.791 208.27a53.993 53.993 0 0 1-27.23-11.27s5.21 15.42 26.56 16.23l.67-4.96Z" fill="#EB996E"/><path d="M451.26 153.1c-.46.71-3.23-.33-6.67-.71-3.44-.38-6.37-.1-6.65-.9-.12-.38.52-1 1.79-1.49a11.044 11.044 0 0 1 5.21-.56c1.765.193 3.458.803 4.94 1.78 1.12.78 1.59 1.54 1.38 1.88Zm26.03-5.89c-.48.69-2.53.11-5 .2-2.47.09-4.46.67-5 0-.22-.33.07-1 .93-1.68a6.818 6.818 0 0 1 4-1.3 6.908 6.908 0 0 1 4 1.13c.97.64 1.28 1.32 1.07 1.65Z" fill="#263238"/><path d="M449.23 178.91a6.26 6.26 0 0 1 4.59-1c.817.113 1.57.505 2.13 1.11.606.895.872 1.976.75 3.05a6.126 6.126 0 0 1-.29 1.91 2.498 2.498 0 0 1-1.22 1.43 3.429 3.429 0 0 1-2 .1 7.516 7.516 0 0 1-3.09-1.12 3.803 3.803 0 0 1-1.72-2.7 2.578 2.578 0 0 1 1.55-2.66" fill="#EB996E"/><path d="M457.12 185.33c-.21.08-.6-.56-1.3-1.43a10.695 10.695 0 0 0-7.26-4.14c-1.11-.16-1.85-.17-1.9-.39-.05-.22.65-.59 1.92-.72a8.37 8.37 0 0 1 4.81 1.08 8.255 8.255 0 0 1 3.37 3.59c.54 1.15.55 1.95.36 2.01Zm-50.669 20.23c6.95-1.39 12.31-7.36 14.7-14 2.39-6.64 2.26-13.95 1.63-21a3.379 3.379 0 0 0-.95-2.48c-1.05-.81-2.56-.15-3.7.54a115.463 115.463 0 0 0-12.57 8.84c-3.72 3-7.4 6.45-8.83 11-2.19 7 2.44 15.35 9.53 17.19" fill="#263238"/><path d="m566.2 203.93-32.77-52.68-9.06-18.54s-2.89-3.83-5.89-7.1c-4.92-5.37-9.79-1.2-9.79-1.2a3.323 3.323 0 0 0-3.29-2 5.593 5.593 0 0 0-4.53 2.31s-1.34-1.49-5.06-1.72a3.872 3.872 0 0 0-2.35.76c-1.22-1.07-3.46-2.61-5.61-1.83-1.68.61-11.87 8.36-14.38 12.26-1.24 1.93 1.06 4.43 4.16 3.26a27.513 27.513 0 0 0 3.72-1.51 10.165 10.165 0 0 0 2.52-2s-2.57 4.5 0 5.29a5.89 5.89 0 0 0 4.83-1.17c1-.82 2.1-1.89 3.17-2.94l-.12.18c-1.42 2.1 2.28 5.21 4.07 3.95a26.48 26.48 0 0 0 2.39-1.9c4.16 3-1.61 6.89-4.05 6.69a74.515 74.515 0 0 0-11.28 0c-2.12.17-4 .68-5.16 1.85-1.38 1.42.07 4.4 2 4.7 3.59.56 8.17 1.35 12.93 2.58 5.6 1.44 20.27 6.21 20.27 6.21l1.43 1.16 19.93 48.61-34.12 7.23-7.62 43.24 61.6-16.72c13.86-7.3 20.47-25.77 12.06-38.97Z" fill="#FFBE9D"/><path d="M512.93 159.29a4.207 4.207 0 0 1-.78-.19l-2.21-.63-8.11-2.41-5.59-1.69c-2-.62-4.15-1.26-6.43-1.84a61.39 61.39 0 0 0-7.22-1.49 12.362 12.362 0 0 1-3.92-.71 2.633 2.633 0 0 1-.88-.65 1.676 1.676 0 0 1-.3-.54l-.07-.53a5.11 5.11 0 0 1 .13-2.12 2.923 2.923 0 0 1 1.42-1.64 10.494 10.494 0 0 1 1.9-.76c1.3-.372 2.65-.538 4-.49 2.6 0 5.05.4 7.39.3a23.206 23.206 0 0 0 3.39-.33c1.09-.2 2.13-.48 3.15-.74a16.88 16.88 0 0 1 5.83-.75c1.62.155 3.205.56 4.7 1.2a29.556 29.556 0 0 1 3.28 1.61c.87.49 1.53.9 2 1.17.231.133.452.284.66.45a4.138 4.138 0 0 1-.72-.36l-2-1.08a32.221 32.221 0 0 0-3.29-1.52 15.605 15.605 0 0 0-4.62-1.1 16.563 16.563 0 0 0-5.69.79c-1 .27-2.06.57-3.17.78a22.937 22.937 0 0 1-3.47.36c-2.38.11-4.86-.24-7.4-.27a12.546 12.546 0 0 0-3.8.47c-1.22.4-2.61.83-3 2.07a4.85 4.85 0 0 0-.11 1.9l.07.46a.799.799 0 0 0 .19.33c.201.22.442.4.71.53a12.44 12.44 0 0 0 3.75.66c2.456.365 4.887.879 7.28 1.54 2.29.59 4.43 1.25 6.43 1.89l5.58 1.75 8.06 2.57 2.18.72c.235.076.463.173.68.29ZM487.66 122c.06.08-1.54 1-3.9 2.79a41.148 41.148 0 0 0-3.92 3.4c-1.4 1.36-2.87 3-4.61 4.45a4.742 4.742 0 0 0-1.84 2.47 1.739 1.739 0 0 0 1.2 2.14 5.26 5.26 0 0 0 2.64.05 12.512 12.512 0 0 0 2.3-.66 16.486 16.486 0 0 0 4.05-2.46 3.92 3.92 0 0 1-.9.94 12.25 12.25 0 0 1-3 1.87c-.758.322-1.545.57-2.35.74a5.734 5.734 0 0 1-2.88 0 2.22 2.22 0 0 1-1.55-2.71 5.249 5.249 0 0 1 2-2.76c1.71-1.46 3.18-3 4.62-4.4a35.273 35.273 0 0 1 4-3.34c1.22-.87 2.25-1.49 3-1.91.36-.239.741-.444 1.14-.61Z" fill="#EB996E"/><path d="M500.17 126.12c-.357.481-.744.939-1.16 1.37l-3.29 3.62-4.93 5.33a12.17 12.17 0 0 1-3.46 2.64 5.352 5.352 0 0 1-2.3.57 3.206 3.206 0 0 1-2.3-.92 2.137 2.137 0 0 1-.54-1.25c-.034-.431.01-.865.13-1.28a7.272 7.272 0 0 1 1.06-2.19c1.77-1.87 3.41-3.63 4.88-5.25 1.47-1.62 2.94-2.89 4.12-4a8.307 8.307 0 0 1 1.71-1.37 4.219 4.219 0 0 1 1.61-.36c.89-.06 1.41 0 1.36.12a4.103 4.103 0 0 0-1.34.06 4.523 4.523 0 0 0-1.51.4 9.16 9.16 0 0 0-1.61 1.39c-1.14 1.14-2.55 2.46-4 4.06-1.45 1.6-3.08 3.42-4.84 5.31a6.985 6.985 0 0 0-1 2 3.194 3.194 0 0 0-.12 1.1c.04.352.187.683.42.95a2.708 2.708 0 0 0 1.92.75 4.839 4.839 0 0 0 2.07-.51 11.84 11.84 0 0 0 3.33-2.51l5-5.25 3.41-3.5.95-.94c.266-.24.41-.353.43-.34Zm15.321 4.82s0 .31-.4.59a2.132 2.132 0 0 1-1.662.418 2.13 2.13 0 0 1-.815-.323 2.135 2.135 0 0 1-.613-.625c-.23-.38-.23-.67-.17-.68.06-.01.2.19.46.45.33.338.756.568 1.22.66.47.069.951-.004 1.38-.21.34-.16.54-.33.6-.28Z" fill="#EB996E"/><path d="M516.69 135.53c-.11.09-.86-.66-1.52-1.79a4.155 4.155 0 0 1-.83-2.19c.13-.05.63.85 1.28 1.93a7.81 7.81 0 0 1 1.07 2.05Zm2.21 17.88a6.447 6.447 0 0 1-.95-2.08 17.004 17.004 0 0 1-.82-5.47 17.142 17.142 0 0 1 1-5.44 6.396 6.396 0 0 1 1-2.06 26.583 26.583 0 0 0-1.45 7.51 26.332 26.332 0 0 0 1.22 7.54Zm26.92 69.29c-.1 0-.2-1.06-.72-2.69a16.86 16.86 0 0 0-1.18-2.75 16.676 16.676 0 0 0-4.8-5.45 16.254 16.254 0 0 0-2.57-1.53c-1.54-.73-2.59-1-2.57-1.06.254-.01.507.024.75.1.684.146 1.353.354 2 .62.949.398 1.854.894 2.7 1.48a15.412 15.412 0 0 1 4.94 5.62c.472.914.844 1.876 1.11 2.87.183.654.307 1.324.37 2 .032.263.022.53-.03.79Z" fill="#EB996E"/><path d="M431.44 319a14.229 14.229 0 0 0-8.33 1.06c-4.45-2-9.94 1.43-9.94 1.43-1.61-.77-11.31 5.57-11.31 5.57l-12.08 5.7-64.53-47.95 18.29-19-25.63-26.67-30 30.9a22.653 22.653 0 0 0-6 14.55 29.59 29.59 0 0 0 16.43 28l76 39a88.758 88.758 0 0 0 17.29-2.69c6.56-1.71 17.77-6.69 17.77-6.69s0 .34 2 4.23c3.61 7 8.9-.56 8.9-.56a14.533 14.533 0 0 0 2.06 3.42c4.57 4.43 7.74-1.52 7.74-1.52s1.37 2.39 5.45.61c4.08-1.78-.59-14.06-.59-14.06s1.37 2.67 4-.71-3.15-13.7-7.52-14.62Z" fill="#FFBE9D"/><path d="M422.311 320.69c.25-.175.537-.288.84-.33a4.996 4.996 0 0 1 2.45.08 9.348 9.348 0 0 1 3.23 1.65 12.49 12.49 0 0 1 1.61 1.43 9.951 9.951 0 0 1 1.26 2 48.692 48.692 0 0 1 2.95 7.41c.3 1 .5 1.77.63 2.33.093.284.137.581.13.88-.07 0-.43-1.19-1.11-3.1a68.49 68.49 0 0 0-3.07-7.29 8.908 8.908 0 0 0-1.18-1.85 13.24 13.24 0 0 0-1.51-1.39 9.911 9.911 0 0 0-3-1.68 6.692 6.692 0 0 0-3.23-.14Zm7.769 27.12a5.65 5.65 0 0 1-.57-1.11l-1.41-3.06c-1.19-2.59-2.93-6.13-4.59-10.16a27.027 27.027 0 0 0-2.63-5.47 8.998 8.998 0 0 0-3.71-3.09 5.998 5.998 0 0 0-3.2-.57c-.78.1-1.18.31-1.2.26-.02-.05.09-.07.28-.17.278-.139.574-.237.88-.29a5.872 5.872 0 0 1 3.39.43 9.165 9.165 0 0 1 3.95 3.16 26.042 26.042 0 0 1 2.72 5.54c1.65 4 3.34 7.58 4.45 10.21.55 1.31 1 2.39 1.26 3.13.17.382.297.781.38 1.19Zm-29.62-15.43a5.711 5.711 0 0 1 1-.57l2.88-1.39c.62-.29 1.27-.61 2-.93a5.671 5.671 0 0 1 2.59-.38 5.394 5.394 0 0 1 2.72 1 8.522 8.522 0 0 1 2 2.36c.55.9 1 1.83 1.4 2.69.4.86.87 1.69 1.31 2.47.87 1.55 1.69 2.94 2.29 4.16.494.953.921 1.938 1.28 2.95.16.359.268.74.32 1.13-.08 0-.62-1.55-1.92-3.91-.65-1.18-1.49-2.54-2.39-4.09-.45-.78-.9-1.61-1.34-2.48-.44-.87-.86-1.78-1.39-2.65a8.501 8.501 0 0 0-1.85-2.23 5.054 5.054 0 0 0-2.45-1 5.228 5.228 0 0 0-2.39.3c-.72.29-1.41.61-2 .86l-2.95 1.33a4.838 4.838 0 0 1-1.11.38Zm1.4-5.31a3.857 3.857 0 0 1-.88.55c-.58.33-1.43.79-2.49 1.35a448.51 448.51 0 0 1-8.31 4.28c-3.26 1.64-6.22 3.1-8.38 4.14l-2.56 1.2a3.996 3.996 0 0 1-1 .37c.273-.222.572-.41.89-.56.58-.32 1.43-.78 2.49-1.34 2.11-1.12 5.05-2.63 8.31-4.28 3.26-1.65 6.22-3.1 8.37-4.13 1.08-.52 2-.93 2.57-1.21.311-.171.644-.295.99-.37Zm-75.75-42.14a32.605 32.605 0 0 0-7.62-.25 32.99 32.99 0 0 0-7.36 2 7.107 7.107 0 0 1 2-1.12 19.103 19.103 0 0 1 5.3-1.42 19.31 19.31 0 0 1 5.5.14 7.054 7.054 0 0 1 2.18.65Z" fill="#EB996E"/><path d="M468.62 111.71a201 201 0 0 0-47.52 5c-3.61.83-7.43 1.89-9.87 4.67-2.59 2.94-3 7.13-3.38 11l-1.24 14.25a32.613 32.613 0 0 1-2.27 3.39c-3.76 4.91-8.55 9-12 14.16-3.45 5.16-5.31 12-2.53 17.52 1.69 3.34 4.81 5.7 7.09 8.66 3.87 5 5.13 11.51 7.39 17.44 2.26 5.93 6.34 12 12.57 13.16 3 .57 6.06-.06 9.05.38 4.47.65 8.23 3.58 11.78 6.37 3.55 2.79 7.41 5.63 11.91 6.08 4.5.45 9.65-2.6 9.74-7.12a10.553 10.553 0 0 1-10.87-.3c-2.62-1.73-4.31-4.53-6.56-6.71-5.53-5.36-14.43-7.06-18.28-13.73-3-5.27-1.83-11.88-.45-17.81 1.19-5.14 2.41-10.71.92-15.65.119-.795.182-1.597.19-2.4 0-5.26-2.05-10.9.4-15.55 3.24-6.16 12.58-6.94 15.85-13.07 1.91-3.57 1.24-8.13 3.32-11.6 1.95-3.26 5.86-4.76 9.58-5.57 3.72-.81 7.63-1.18 10.91-3.1 3.28-1.92 5.76-5.98 4.27-9.47Z" fill="#263238"/><path d="M480.74 219a.995.995 0 0 1-.15.25l-.49.69a13.854 13.854 0 0 1-2.3 2.33 15.53 15.53 0 0 1-4.57 2.45 15.796 15.796 0 0 1-6.8.79 14.377 14.377 0 0 1-7.66-3.14c-2.38-1.83-4.5-4.26-7.19-6.19a10.37 10.37 0 0 0-4.58-1.93 9.997 9.997 0 0 0-5.1.93 25.55 25.55 0 0 1-5.29 1.82 9.288 9.288 0 0 1-5.7-1 28.731 28.731 0 0 1-4.81-3.19 39.156 39.156 0 0 1-4.22-3.67 13.202 13.202 0 0 1-3-4.52 9.364 9.364 0 0 1-.34-5.2 28.36 28.36 0 0 1 1.51-4.69 60.98 60.98 0 0 0 1.52-4.34 58.16 58.16 0 0 0 1.85-8c.619-3.945.837-7.942.65-11.93-.06-1.41-.15-2.51-.23-3.25 0-.35 0-.62-.07-.84a.94.94 0 0 1 0-.29.9.9 0 0 1 .06.28l.12.84c.11.74.24 1.83.33 3.25a56.875 56.875 0 0 1-.48 12 58.742 58.742 0 0 1-1.8 8.11c-.44 1.42-.94 2.89-1.51 4.38-.625 1.475-1.124 3-1.49 4.56a8.797 8.797 0 0 0 .34 4.94 12.744 12.744 0 0 0 2.9 4.34 38.49 38.49 0 0 0 4.17 3.61 28.23 28.23 0 0 0 4.72 3.13 8.741 8.741 0 0 0 5.39 1 25.36 25.36 0 0 0 5.18-1.79 10.573 10.573 0 0 1 5.35-.94c1.739.268 3.386.954 4.8 2 2.74 2 4.84 4.44 7.18 6.25a13.923 13.923 0 0 0 7.43 3.11 16.002 16.002 0 0 0 11.2-3 18.473 18.473 0 0 0 3.08-3.15Z" fill="#263238"/><path d="M380.83 187.2a11.782 11.782 0 0 1-.8-1.11 11.315 11.315 0 0 1-1.42-3.64 15.07 15.07 0 0 1 .1-6.18 19.026 19.026 0 0 1 3.46-7.42 34.584 34.584 0 0 1 7.22-6.82c2.87-2.14 6.13-4.13 9.38-6.44a34.4 34.4 0 0 0 8.9-8.65 22.266 22.266 0 0 0 2.7-6c.64-2.14 1.08-4.38 1.6-6.64a35.33 35.33 0 0 1 2-6.58 14.87 14.87 0 0 1 3.93-5.43 16.688 16.688 0 0 1 5.67-3.13 26.318 26.318 0 0 1 6.08-1.2 69.349 69.349 0 0 1 11.4.36 52.9 52.9 0 0 0 9.86.13 20.998 20.998 0 0 0 7.73-2.3 15.313 15.313 0 0 0 4.73-3.82c.825-1 1.474-2.133 1.92-3.35.28-.84.39-1.3.41-1.29-.072.45-.175.894-.31 1.33a11.278 11.278 0 0 1-1.86 3.44 15.52 15.52 0 0 1-4.75 4 21.219 21.219 0 0 1-7.83 2.41c-3.308.29-6.636.267-9.94-.07a69.931 69.931 0 0 0-11.32-.31c-2.04.159-4.055.562-6 1.2a16.27 16.27 0 0 0-5.5 3 14.452 14.452 0 0 0-3.79 5.26 34.408 34.408 0 0 0-2 6.49c-.52 2.25-1 4.5-1.62 6.67a22.165 22.165 0 0 1-2.77 6.1 34.709 34.709 0 0 1-9 8.76c-3.28 2.32-6.54 4.29-9.4 6.4a34.211 34.211 0 0 0-7.18 6.7 18.458 18.458 0 0 0-3.47 7.25 14.782 14.782 0 0 0-.19 6.08 12.738 12.738 0 0 0 2.06 4.8Z" fill="#455A64"/><path d="M383.76 192.45a22.07 22.07 0 0 1-3.07-2.95 13.76 13.76 0 0 1-2.67-4.23 6.925 6.925 0 0 1-.46-3.13 6.202 6.202 0 0 1 1.35-3.27c1.62-2 4.3-3.06 7.11-3.65 1.41-.29 2.89-.52 4.36-.89a12.402 12.402 0 0 0 4.26-1.77 10.274 10.274 0 0 0 3.1-3.67 33.804 33.804 0 0 0 1.92-4.77 33.704 33.704 0 0 1 2-5 10.604 10.604 0 0 1 3.75-4.15 18.428 18.428 0 0 1 5.21-2c1.77-.46 3.52-.83 5.17-1.39a16.72 16.72 0 0 0 7.94-5.85 60.605 60.605 0 0 0 4.97-7.73 42.773 42.773 0 0 1 4.49-6.65 17.085 17.085 0 0 1 5.13-4.19 12.946 12.946 0 0 1 4.79-1.45 9.002 9.002 0 0 1 3.16.26c.343.091.677.212 1 .36 0 0-.37-.1-1.07-.26a9.788 9.788 0 0 0-3.11-.16 13.08 13.08 0 0 0-4.67 1.5 16.995 16.995 0 0 0-5 4.17 44.169 44.169 0 0 0-4.4 6.64 60.334 60.334 0 0 1-4.92 7.79 20.885 20.885 0 0 1-3.53 3.57A15.379 15.379 0 0 1 416 152c-1.68.58-3.45.95-5.2 1.41a17.748 17.748 0 0 0-5.06 2 10.104 10.104 0 0 0-3.58 4 33.283 33.283 0 0 0-2 4.93 33.533 33.533 0 0 1-2 4.83 11.003 11.003 0 0 1-3.26 3.84 13.234 13.234 0 0 1-4.43 1.82c-1.5.36-3 .58-4.38.87-2.77.56-5.38 1.59-6.91 3.45a5.877 5.877 0 0 0-1.31 3.08 6.681 6.681 0 0 0 .4 3 14.24 14.24 0 0 0 2.55 4.2c.88 1 1.63 1.79 2.14 2.3l.59.57c.15.07.22.14.21.15Z" fill="#455A64"/><path d="M506.86 127.85a3.58 3.58 0 0 1-.52.77c-.36.48-.89 1.16-1.58 2a94.686 94.686 0 0 1-5.62 6.15c-1.14 1.12-2.21 2.38-3.68 2.84a3.246 3.246 0 0 1-2.11 0 2.695 2.695 0 0 1-1.36-1.25 4.07 4.07 0 0 1-.37-2.54c.016-.312.095-.618.23-.9.033.306.033.614 0 .92a4.092 4.092 0 0 0 .49 2.34c.269.461.689.814 1.19 1a2.753 2.753 0 0 0 1.81 0c1.28-.41 2.31-1.61 3.46-2.75 2.29-2.29 4.28-4.45 5.72-6a25.876 25.876 0 0 1 2.34-2.58Z" fill="#EB996E"/><path d="M514.5 127.85c-.164.288-.37.551-.61.78-.41.48-1 1.16-1.78 2l-2.69 2.91-1.6 1.7A14.146 14.146 0 0 1 506 137a4.709 4.709 0 0 1-2.44 1 2.496 2.496 0 0 1-2.27-1 2 2 0 0 1-.37-1.16c.023-.379.14-.747.34-1.07.37-.6.75-1.06 1.08-1.52.66-.91 1.21-1.64 1.6-2.14.18-.276.399-.526.65-.74a4.094 4.094 0 0 1-.48.86c-.34.53-.84 1.29-1.47 2.23-.31.47-.69 1-1 1.52a1.491 1.491 0 0 0 0 1.74 1.999 1.999 0 0 0 1.85.76 4.228 4.228 0 0 0 2.16-.88 13.058 13.058 0 0 0 1.81-1.66l1.63-1.68 2.77-2.84c.79-.8 1.44-1.44 1.9-1.88.213-.263.462-.495.74-.69Z" fill="#EB996E"/><path d="M158.741 161.22c-.508.304-1.035.571-1.58.8-1 .48-2.53 1.15-4.39 2-3.72 1.63-8.9 3.8-14.64 6.13s-11 4.37-14.78 5.79c-1.9.71-3.45 1.27-4.52 1.64-.551.215-1.116.392-1.69.53.518-.286 1.06-.527 1.62-.72l4.46-1.79 14.72-5.93 14.69-6 4.45-1.81a10.058 10.058 0 0 1 1.66-.64Z" fill="#D87E2E"/><path d="M219.55 215.214a3.796 3.796 0 0 1-.58.66 19.805 19.805 0 0 1-1.81 1.75 31.784 31.784 0 0 1-7.77 5 34.223 34.223 0 0 1-13.36 3 31.318 31.318 0 0 1-8.09-.91 40.99 40.99 0 0 1-8.17-3.05c-5.38-2.62-10.16-5.71-14.83-7.86a33.988 33.988 0 0 0-13.1-3.42 19.421 19.421 0 0 0-8.93 1.67c-.756.354-1.481.769-2.17 1.24a6.125 6.125 0 0 1-.74.47c.213-.199.441-.383.68-.55.672-.51 1.388-.959 2.14-1.34a19.19 19.19 0 0 1 9-1.86 33.895 33.895 0 0 1 13.29 3.41c4.72 2.15 9.52 5.23 14.85 7.83a41.498 41.498 0 0 0 8.08 3c2.599.648 5.271.957 7.95.92a33.651 33.651 0 0 0 21-7.73c.85-.68 1.45-1.28 1.87-1.67a5.61 5.61 0 0 1 .69-.56Z" fill="#fff"/><path d="M618.91 434a12.679 12.679 0 0 1 20.59-3.57 16.455 16.455 0 0 1-9.21 7.08 10.001 10.001 0 0 1-11.38-3.51Z" fill="#D87E2E"/><path d="M611.811 435.64a12.878 12.878 0 0 1 2.87-.9c1.81-.44 4.33-.93 7.12-1.39 2.79-.46 5.33-.81 7.18-1a17.029 17.029 0 0 1 3-.23c-.962.282-1.945.483-2.94.6l-7.15 1.17c-2.78.46-5.3.9-7.12 1.24-.977.226-1.965.396-2.96.51Z" fill="#263238"/><path d="M261.48 370.69a16.65 16.65 0 0 1 4.837 6.573 16.65 16.65 0 0 1-7.837 21.117c-3.67-9.41-5.08-19.54 3-27.69Zm13.911 7.22a21.541 21.541 0 0 0 10.695 17.448 21.546 21.546 0 0 0 20.455.642c-7-11-16.47-20.27-31.15-18.11" fill="#D87E2E"/><path d="M243.521 343.13c.176.147.334.315.47.5l1.25 1.49c1.06 1.31 2.61 3.2 4.57 5.49 3.9 4.6 9.409 10.86 15.899 17.39 3.25 3.26 6.44 6.27 9.4 8.93s5.76 4.93 8.16 6.75a62.167 62.167 0 0 0 5.891 4c1.45.86 2.31 1.22 2.29 1.27a2.546 2.546 0 0 1-.64-.24 15.266 15.266 0 0 1-1.75-.85 53.171 53.171 0 0 1-6-3.89c-2.44-1.8-5.24-4.07-8.25-6.69s-6.2-5.66-9.46-8.92c-6.5-6.54-12.001-12.85-15.811-17.52-1.93-2.33-3.43-4.26-4.45-5.6l-1.179-1.56a3.58 3.58 0 0 1-.39-.55Z" fill="#263238"/><path d="M260.71 384.91c-.09 0 .24-1.4.53-3.67a39.116 39.116 0 0 0-1.84-17.62c-.75-2.16-1.36-3.45-1.28-3.49.208.262.38.552.51.86.418.813.791 1.647 1.12 2.5a34.737 34.737 0 0 1 2.1 8.78 34.339 34.339 0 0 1-.25 9 24.47 24.47 0 0 1-.6 2.73 4.088 4.088 0 0 1-.29.91Z" fill="#263238"/><path d="M702 182.54a12.677 12.677 0 0 1-1.902-11.647 12.66 12.66 0 0 1 3.253-5.134 12.656 12.656 0 0 1 5.269-3.029 16.418 16.418 0 0 1 1.87 11.45 10.002 10.002 0 0 1-8.49 8.36Z" fill="#D87E2E"/><path d="M700.1 189.57a12.41 12.41 0 0 1 .57-2.95c.47-1.8 1.23-4.25 2.15-6.93.92-2.68 1.82-5.08 2.5-6.81a16.08 16.08 0 0 1 1.22-2.75c-.21.982-.501 1.946-.87 2.88-.66 1.91-1.47 4.25-2.36 6.85-.89 2.6-1.73 5.1-2.29 6.86a29.377 29.377 0 0 1-.92 2.85Z" fill="#263238"/><path d="M658 256.94a24.5 24.5 0 0 1 26.21-30.74c1.39 7.56-1 15.32-4.95 21.89-4.71 7.75-14.07 11-21.26 8.85Z" fill="#D87E2E"/><path d="M628.41 286.54c.125-.194.269-.375.43-.54l1.29-1.47c1.15-1.26 2.83-3.06 4.92-5.26 4.2-4.4 10.06-10.41 16.58-17 6.52-6.59 12.45-12.54 16.77-16.81l5.14-5.05 1.42-1.35c.32-.3.5-.46.52-.44a3.65 3.65 0 0 1-.45.52l-1.35 1.42-5 5.15L652 262.63l-16.68 16.9-5 5.14-1.36 1.4a3.128 3.128 0 0 1-.55.47Z" fill="#263238"/><path d="M658 256.94a24.5 24.5 0 0 1 26.21-30.74c1.39 7.56-1 15.32-4.95 21.89-4.71 7.75-14.07 11-21.26 8.85Z" fill="#000" opacity=".3"/><path d="M644.291 259.91a14.999 14.999 0 0 1-3.131-24.6c4 2.5 6.561 6.77 7.891 11.29 1.58 5.34-.8 11-4.76 13.31Z" fill="#D87E2E"/><path d="M644.291 259.91a14.999 14.999 0 0 1-3.131-24.6c4 2.5 6.561 6.77 7.891 11.29 1.58 5.34-.8 11-4.76 13.31Z" fill="#000" opacity=".3"/><path d="M645.85 268.43a3.87 3.87 0 0 1-.3-.92c-.17-.59-.36-1.46-.57-2.55-.42-2.16-.86-5.18-1.26-8.51s-.68-6.37-.85-8.57a21.716 21.716 0 0 1-.14-3.56c.25 1.164.42 2.343.51 3.53.27 2.32.62 5.27 1 8.54.38 3.27.78 6.34 1.1 8.51.32 2.17.59 3.51.51 3.53Z" fill="#263238"/><path d="M457 375.81a23.67 23.67 0 0 1 39-7.08c-11.34 8.79-24.57 14.79-38.92 7.08" fill="#D87E2E"/><path d="M457 375.81a23.67 23.67 0 0 1 39-7.08c-11.34 8.79-24.57 14.79-38.92 7.08" fill="#000" opacity=".3"/><path d="M450.63 379.33c.27-.27.572-.505.9-.7.6-.43 1.49-1 2.63-1.66a49.995 49.995 0 0 1 19.35-6.39c1.3-.14 2.36-.21 3.09-.22a4.185 4.185 0 0 1 1.14 0c0 .08-1.61.18-4.19.56a59.693 59.693 0 0 0-9.89 2.32 58.988 58.988 0 0 0-9.32 4c-2.34 1.28-3.66 2.16-3.71 2.09Z" fill="#263238"/><path d="M193.43 245.51a18.278 18.278 0 0 1 26 16.05c-11.05-.82-21.74-4.21-26-16.05Z" fill="#D87E2E"/><path d="M193.43 245.51a18.278 18.278 0 0 1 26 16.05c-11.05-.82-21.74-4.21-26-16.05Z" fill="#000" opacity=".3"/><path d="M187.94 244.22c.292-.048.589-.048.88 0 .797.086 1.588.212 2.37.38a38.279 38.279 0 0 1 7.54 2.41 38.806 38.806 0 0 1 6.88 3.93c.82.6 1.46 1.11 1.88 1.49.237.178.449.387.63.62-.06.07-1-.7-2.72-1.8a45.845 45.845 0 0 0-14.29-6.25c-1.95-.49-3.18-.7-3.17-.78Z" fill="#263238"/><path d="M551.76 363.56a16.35 16.35 0 0 1 20.88-17.64c-3.77 9.17-9.63 17.32-20.88 17.64Z" fill="#D87E2E"/><path d="M549.13 367.87c.305-.935.725-1.828 1.25-2.66a33.65 33.65 0 0 1 9.41-10.5 11.999 11.999 0 0 1 2.51-1.53A27.423 27.423 0 0 1 560 355a41.473 41.473 0 0 0-9.32 10.39 25.395 25.395 0 0 1-1.55 2.48Z" fill="#263238"/><path d="M630.45 311.61a16.34 16.34 0 0 1 2.861-15.263 16.346 16.346 0 0 1 14.329-5.987c-2 9.72-6.2 18.82-17.19 21.25Z" fill="#D87E2E"/><path d="M630.45 311.61a16.34 16.34 0 0 1 2.861-15.263 16.346 16.346 0 0 1 14.329-5.987c-2 9.72-6.2 18.82-17.19 21.25Z" fill="#000" opacity=".3"/><path d="M628.68 316.34c.121-.974.366-1.928.73-2.84a32.885 32.885 0 0 1 3-6.43 32.54 32.54 0 0 1 4.28-5.65 12.006 12.006 0 0 1 2.17-2 27.699 27.699 0 0 1-1.9 2.22 43.64 43.64 0 0 0-4.11 5.68 44.379 44.379 0 0 0-3.09 6.28 25.672 25.672 0 0 1-1.08 2.74Z" fill="#263238"/><path d="M101.91 223.804a16.358 16.358 0 0 1 10.165-11.742 16.356 16.356 0 0 1 15.395 2.052c-6.6 7.39-14.84 13.13-25.56 9.69Z" fill="#D87E2E"/><path d="M98 226.994a12.438 12.438 0 0 1 2.06-2.09 33.408 33.408 0 0 1 5.82-4 32.713 32.713 0 0 1 6.55-2.73 11.407 11.407 0 0 1 2.87-.61 26.81 26.81 0 0 1-2.76 1 41.196 41.196 0 0 0-12.24 6.7c-.732.622-1.5 1.199-2.3 1.73Z" fill="#263238"/><path d="m494.37 109.6 8-14.49a38.613 38.613 0 0 1 9.252-51.26 38.612 38.612 0 0 1 62.034 30.631 38.61 38.61 0 0 1-61.936 30.829l-17.35 4.29Z" fill="#fff"/><path d="m494.37 109.6 17.37-4.4-.07.21-.61-.77.8.59a39.615 39.615 0 0 0 7.94 4.62 38.601 38.601 0 0 0 10.52 2.85c2.006.251 4.031.324 6.05.22 1-.07 2.1-.11 3.17-.21l3.21-.53a38.471 38.471 0 0 0 23.65-15.57 38.132 38.132 0 0 0 6.28-14.79 38.868 38.868 0 0 0-.68-16.95 37.669 37.669 0 0 0-8.31-15.57l-1.57-1.69c-.52-.57-1.13-1-1.69-1.56a20.386 20.386 0 0 0-1.74-1.49l-1.84-1.35A15.853 15.853 0 0 0 555 42l-2-1.18-2-1a17.552 17.552 0 0 0-2-.89 38.768 38.768 0 0 0-17.09-2.47 37.449 37.449 0 0 0-15.63 4.76 38.783 38.783 0 0 0-17.94 22.4 42.001 42.001 0 0 0-1.58 12.44 38.346 38.346 0 0 0 5.8 19v.13l-8.15 14.42 7.93-14.55v.13a38.333 38.333 0 0 1-5.95-19.07 41.992 41.992 0 0 1 1.55-12.56A39.242 39.242 0 0 1 516 40.84 38.08 38.08 0 0 1 531.83 36a39.37 39.37 0 0 1 17.32 2.49c.708.256 1.4.557 2.07.9l2.06 1 2 1.17c.671.373 1.315.79 1.93 1.25l1.79 1.34c.64.44 1.17 1 1.77 1.51.6.51 1.18 1 1.71 1.58l1.63 1.76a37.912 37.912 0 0 1 8.42 15.78 39.433 39.433 0 0 1 .62 17.16 38.364 38.364 0 0 1-6.38 15 38.785 38.785 0 0 1-23.95 15.7l-3.26.53c-1.07.1-2.14.13-3.19.2-2.04.1-4.085.016-6.11-.25a38.475 38.475 0 0 1-10.61-2.92 39.003 39.003 0 0 1-8-4.71l.18-.18.13.16h-.2l-17.39 4.13Z" fill="#263238"/><path fill="#D87E2E" d="m88.978 114.33 39.995.64-1.968 122.984-39.995-.64zm38.027 123.625.64-39.995 122.984 1.968-.64 39.995zm82.989 1.328 39.995.64-1.968 122.984-39.995-.64zm-1.328 82.989-.64 39.995-122.984-1.968.64-39.995zm31.293-205.525-.64 39.995-110.986-1.776.64-39.995zM544.5 71.422h-15a.313.313 0 0 0-.312.312v15.704c0 .171.14.312.312.312h15c.172 0 .312-.14.312-.313V71.734a.313.313 0 0 0-.312-.312Zm-12.812 2.5h10.624v4.57h-10.624v-4.57Zm10.624 11.328h-10.624v-4.57h10.624v4.57Z"/><path d="M533.562 83.219a1.248 1.248 0 0 0 1.25 1.25 1.248 1.248 0 0 0 .884-2.134 1.248 1.248 0 0 0-2.134.884Zm0-6.953a1.248 1.248 0 0 0 1.25 1.25 1.249 1.249 0 1 0-1.25-1.25Z" fill="#000"/><path d="M548.695 68.41c-1.789-4.722-6.347-8.082-11.687-8.082-5.34 0-9.899 3.356-11.688 8.078a7.828 7.828 0 0 0-5.82 7.61c.024 4.078 3.188 7.394 7.172 7.75a.313.313 0 0 0 .34-.313v-2.36a.312.312 0 0 0-.274-.308 4.875 4.875 0 0 1-2.816-1.347 4.813 4.813 0 0 1-1.453-3.461 4.82 4.82 0 0 1 1.023-2.985 4.87 4.87 0 0 1 2.582-1.707l1.481-.39.543-1.434a9.411 9.411 0 0 1 1.394-2.48 9.623 9.623 0 0 1 2.047-1.954 9.459 9.459 0 0 1 5.469-1.726c1.973 0 3.863.597 5.469 1.73a9.53 9.53 0 0 1 2.047 1.953 9.44 9.44 0 0 1 1.394 2.48l.539 1.43 1.477.391a4.85 4.85 0 0 1 3.597 4.688 4.806 4.806 0 0 1-1.453 3.46 4.861 4.861 0 0 1-2.808 1.348.308.308 0 0 0-.27.309v2.363c0 .184.16.328.344.313 3.973-.36 7.129-3.672 7.156-7.743a7.824 7.824 0 0 0-5.805-7.613Z" fill="#D87E2E"/></svg>